<svg version="1.1" id="Layer_1" xmlns="http://www.w3.org/2000/svg" xmlns:xlink="http://www.w3.org/1999/xlink" x="0px" y="0px"
	 width="100%" viewBox="0 0 4096 2048" enable-background="new 0 0 4096 2048" xml:space="preserve">
<path fill="#F3F4F6" opacity="1.000000" stroke="none" 
	d="
M910.000000,2.000000 
	C1124.709595,2.000000 1339.419067,2.000000 1555.063354,2.925277 
	C1555.998657,685.900391 1555.999390,1367.950195 1556.000000,2050.000000 
	C1341.290527,2050.000000 1126.580933,2050.000000 910.935669,2049.077637 
	C910.000000,1366.103394 910.000000,684.051697 910.000000,2.000000 
z"/>
<path fill="#FCFCFD" opacity="1.000000" stroke="none" 
	d="
M522.000000,2050.000000 
	C348.714417,2050.000000 175.428818,2050.000000 2.071613,2050.000000 
	C2.071613,1367.569092 2.071613,685.138184 2.071613,2.000000 
	C174.715820,2.000000 347.432617,2.000000 521.074707,2.922509 
	C522.000000,685.896667 522.000000,1367.948364 522.000000,2050.000000 
z"/>
<path fill="#EAECF0" opacity="1.000000" stroke="none" 
	d="
M1556.925293,2050.000000 
	C1555.999390,1367.950195 1555.998657,685.900391 1555.999023,2.925277 
	C1720.716431,2.000000 1885.432983,2.000000 2051.074707,2.932083 
	C2052.000000,685.909424 2052.000000,1367.954712 2052.000000,2050.000000 
	C1887.283569,2050.000000 1722.567017,2050.000000 1556.925293,2050.000000 
z"/>
<path fill="#E4E8EB" opacity="1.000000" stroke="none" 
	d="
M2052.932129,2050.000000 
	C2052.000000,1367.954712 2052.000000,685.909424 2052.000000,2.932083 
	C2108.045410,2.000000 2164.090576,2.000000 2221.130615,2.689267 
	C2224.611084,6.434985 2226.851562,9.736601 2229.619873,12.511248 
	C2273.622314,56.612602 2317.588379,100.751289 2361.789551,144.653152 
	C2385.102295,167.807739 2408.892334,190.481110 2432.373779,213.466797 
	C2437.792725,218.771301 2442.830811,224.464966 2448.323730,230.582092 
	C2469.135010,251.848083 2489.708496,272.470428 2510.185059,293.188660 
	C2524.870605,308.047729 2539.426514,323.035156 2553.444824,338.555969 
	C2552.566162,343.432007 2552.035400,347.717377 2552.035156,352.002808 
	C2551.997314,762.961365 2552.000000,1173.919922 2552.000000,1584.878418 
	C2552.000000,1587.878174 2552.060547,1590.879517 2551.982178,1593.877197 
	C2551.770264,1601.980103 2548.590820,1609.374634 2542.435547,1613.950684 
	C2536.314453,1618.501099 2532.514404,1624.508789 2527.929932,1630.098389 
	C2526.468506,1631.880249 2524.940918,1633.626343 2523.292480,1635.233643 
	C2511.696777,1646.540649 2499.759033,1657.514648 2488.520996,1669.165039 
	C2476.309570,1681.824951 2465.088379,1695.443848 2452.808838,1708.033325 
	C2431.167236,1730.221436 2409.049805,1751.944946 2387.131836,1773.862915 
	C2298.516357,1862.477783 2209.886475,1951.078125 2121.348877,2039.770508 
	C2118.421143,2042.703247 2116.428467,2046.569092 2114.000000,2050.000000 
	C2093.954590,2050.000000 2073.909424,2050.000000 2052.932129,2050.000000 
z"/>
<path fill="#F7F8F9" opacity="1.000000" stroke="none" 
	d="
M522.922485,2050.000000 
	C522.000000,1367.948364 522.000000,685.896667 522.000000,2.922509 
	C650.718323,2.000000 779.436646,2.000000 909.077515,2.000000 
	C910.000000,684.051697 910.000000,1366.103394 910.000000,2049.077637 
	C781.281677,2050.000000 652.563354,2050.000000 522.922485,2050.000000 
z"/>
<path fill="#DCDFE4" opacity="1.000000" stroke="none" 
	d="
M2114.937256,2050.000000 
	C2116.428467,2046.569092 2118.421143,2042.703247 2121.348877,2039.770508 
	C2209.886475,1951.078125 2298.516357,1862.477783 2387.131836,1773.862915 
	C2409.049805,1751.944946 2431.167236,1730.221436 2452.808838,1708.033325 
	C2465.088379,1695.443848 2476.309570,1681.824951 2488.520996,1669.165039 
	C2499.759033,1657.514648 2511.696777,1646.540649 2523.292480,1635.233643 
	C2524.940918,1633.626343 2526.468506,1631.880249 2527.929932,1630.098389 
	C2532.514404,1624.508789 2536.314453,1618.501099 2542.435547,1613.950684 
	C2548.590820,1609.374634 2551.770264,1601.980103 2551.982178,1593.877197 
	C2552.060547,1590.879517 2552.000000,1587.878174 2552.000000,1584.878418 
	C2552.000000,1173.919922 2551.997314,762.961365 2552.035156,352.002808 
	C2552.035400,347.717377 2552.566162,343.432007 2554.037109,338.854919 
	C2577.420898,360.636169 2599.601318,382.724762 2621.833252,404.760925 
	C2624.414795,407.319763 2627.283691,409.588196 2630.302734,412.592529 
	C2631.693848,414.428864 2632.745850,415.719421 2633.916992,416.891022 
	C2711.235840,494.235596 2788.561523,571.573669 2865.912109,648.886353 
	C2867.773193,650.746399 2869.929443,652.310852 2872.033203,654.709106 
	C2875.395020,660.750732 2878.556641,666.247253 2886.565918,666.310059 
	C2888.025879,667.674622 2888.979248,668.796143 2889.927734,670.659424 
	C2891.997314,674.647827 2893.566650,678.397217 2896.221680,681.066223 
	C2940.329590,725.407654 2984.605469,769.581482 3028.746826,813.889587 
	C3034.360596,819.524414 3039.149902,825.985779 3044.813477,831.564453 
	C3054.278564,840.887512 3064.370850,849.575867 3073.795654,858.937439 
	C3109.720215,894.620300 3145.492188,930.456604 3181.280029,966.276794 
	C3183.063477,968.061768 3184.460205,970.233582 3186.822510,973.217712 
	C3178.215088,981.487793 3169.939697,989.197937 3161.983887,997.224731 
	C3159.527100,999.703613 3157.942627,1003.047058 3155.980957,1006.001587 
	C3156.002930,1006.008484 3156.005371,1005.962219 3155.546143,1006.169067 
	C3154.711670,1006.919678 3154.336670,1007.463379 3153.985352,1008.007629 
	C3154.009033,1008.008118 3154.006348,1007.961304 3153.547363,1008.169434 
	C3152.712646,1008.921326 3152.336670,1009.465088 3151.984863,1010.008301 
	C3152.008789,1010.007812 3152.007568,1009.960266 3151.548828,1010.169678 
	C3150.713623,1010.922729 3150.336914,1011.466431 3149.984375,1012.009033 
	C3150.008789,1012.007996 3150.009521,1011.959778 3149.551270,1012.170166 
	C3148.715088,1012.924072 3148.337402,1013.467651 3147.984131,1014.009644 
	C3148.008545,1014.007996 3148.011475,1013.959106 3147.553223,1014.170654 
	C3146.716064,1014.925659 3146.337402,1015.469116 3145.983398,1016.010315 
	C3146.008545,1016.007996 3146.013428,1015.958618 3145.555664,1016.171753 
	C3144.718262,1016.928162 3144.338379,1017.471375 3143.983154,1018.011353 
	C3144.008057,1018.008057 3144.015381,1017.958679 3143.506592,1017.959290 
	C3142.658447,1017.970154 3142.319336,1017.980347 3141.383789,1018.282959 
	C3129.791260,1030.115845 3118.997559,1041.857178 3107.767822,1053.165405 
	C2997.067871,1164.637329 2886.297607,1276.039551 2775.540039,1387.453979 
	C2765.705811,1397.346558 2755.750732,1407.119263 2745.987061,1417.080200 
	C2741.269775,1421.892578 2740.356934,1427.104858 2743.690674,1432.335815 
	C2745.953613,1435.885986 2748.938477,1439.104736 2752.085205,1441.931763 
	C2756.511475,1445.907715 2761.787842,1448.977417 2766.004150,1453.140259 
	C2788.523438,1475.374268 2810.923340,1497.732056 2833.091309,1520.315308 
	C2836.178467,1523.460205 2837.755371,1528.087524 2839.733643,1532.622925 
	C2816.484375,1556.292847 2793.486084,1579.322021 2770.645508,1602.506714 
	C2767.968018,1605.224854 2766.159668,1608.799072 2763.354980,1612.270996 
	C2761.764648,1613.442139 2760.720459,1614.271118 2759.778076,1615.202759 
	C2703.538086,1670.795776 2647.296631,1726.387329 2591.082520,1782.006348 
	C2579.975098,1792.996338 2568.891602,1804.014038 2557.990967,1815.207642 
	C2555.547852,1817.716309 2553.919922,1821.018921 2551.324707,1824.255371 
	C2550.468018,1824.756592 2550.176025,1824.930908 2549.942871,1825.164185 
	C2477.419434,1897.620728 2404.887939,1970.069336 2332.445312,2042.606689 
	C2330.473145,2044.581421 2329.460449,2047.514160 2328.000000,2050.000000 
	C2257.291504,2050.000000 2186.583008,2050.000000 2114.937256,2050.000000 
z"/>
<path fill="#BBC3CB" opacity="1.000000" stroke="none" 
	d="
M4098.000000,1878.000000 
	C4098.000000,1935.291138 4098.000000,1992.582153 4098.000000,2050.000000 
	C3759.958252,2050.000000 3421.916260,2050.000000 3082.825684,2049.292969 
	C3084.718506,2045.051636 3087.391602,2041.246582 3090.640869,2038.022095 
	C3162.550537,1966.665649 3234.749512,1895.599365 3306.434082,1824.018066 
	C3428.604980,1702.023315 3550.458740,1579.710571 3672.489014,1457.574951 
	C3673.348145,1456.714844 3674.821777,1456.468628 3676.056152,1456.631104 
	C3678.580566,1460.388306 3680.803711,1463.704468 3683.572266,1466.475464 
	C3776.807617,1559.791382 3870.078857,1653.071411 3963.396484,1746.305054 
	C3974.696533,1757.594849 3986.445801,1768.435303 3997.714600,1779.755249 
	C4028.739502,1810.921631 4059.592041,1842.259766 4090.621338,1873.421875 
	C4092.608643,1875.418091 4095.519043,1876.495239 4098.000000,1878.000000 
z"/>
<path fill="#DCDFE4" opacity="1.000000" stroke="none" 
	d="
M2966.000000,2.000014 
	C3301.383057,2.000000 3636.766357,2.000000 3973.065186,2.730111 
	C3971.915039,6.711191 3970.364258,10.476151 3967.708252,13.138374 
	C3888.190186,92.839996 3808.565186,172.435181 3728.938232,252.027832 
	C3726.873779,254.091461 3724.592773,255.938416 3722.262695,258.020325 
	C3701.687744,246.824814 3685.811279,230.376617 3667.892578,215.421295 
	C3664.741943,218.451721 3662.109619,220.899277 3659.569336,223.438797 
	C3584.897949,298.094788 3510.235596,372.759888 3435.572998,447.424469 
	C3433.924316,449.073212 3432.157471,450.626068 3430.674072,452.413025 
	C3426.731445,457.161713 3426.892822,460.207886 3432.085693,463.908783 
	C3437.090088,467.475555 3440.034424,471.801025 3439.403564,477.709534 
	C3436.156738,474.890472 3433.438721,472.432556 3430.866211,469.831024 
	C3374.676758,413.010925 3318.525635,356.152557 3262.262939,299.404938 
	C3259.340088,296.456940 3255.488281,294.429596 3251.760254,291.382996 
	C3237.974854,276.554260 3224.807861,262.007385 3210.969727,248.129410 
	C3135.479004,172.419479 3059.834961,96.862198 2984.166016,21.330379 
	C2981.924072,19.092867 2978.822266,17.717297 2976.016602,15.255800 
	C2973.619385,11.905517 2971.269287,9.285792 2969.057861,6.553772 
	C2967.912109,5.138298 2967.011475,3.524293 2966.000000,2.000014 
z"/>
<path fill="#DCDFE4" opacity="1.000000" stroke="none" 
	d="
M3070.000000,2050.000000 
	C2901.958252,2050.000000 2733.916260,2050.000000 2564.984375,2049.306152 
	C2564.523926,2047.725342 2564.743164,2046.614380 2565.414307,2045.983765 
	C2583.811523,2028.692383 2602.353027,2011.552979 2620.626221,1994.132080 
	C2625.643799,1989.348389 2629.589844,1983.448853 2634.545898,1978.590576 
	C2641.884277,1971.396973 2650.010986,1964.997803 2657.233887,1957.697998 
	C2689.984131,1924.598877 2724.545898,1893.361694 2757.669189,1860.694092 
	C2831.385254,1787.991943 2903.817627,1713.986694 2976.648926,1640.389771 
	C3017.384277,1599.226196 3057.865967,1557.811768 3098.477051,1516.524780 
	C3104.549316,1510.351318 3110.826660,1504.373779 3116.755127,1498.066895 
	C3118.944824,1495.737183 3120.402100,1492.718384 3122.769531,1489.717896 
	C3128.900146,1484.282837 3134.455078,1479.143921 3140.806152,1474.004883 
	C3146.624023,1473.342529 3150.343506,1475.254272 3153.985840,1478.843506 
	C3181.006592,1505.470947 3208.274902,1531.846680 3235.360107,1558.408936 
	C3248.413574,1571.209717 3261.114990,1584.369995 3274.199219,1597.138672 
	C3290.858154,1613.395508 3307.843262,1629.318115 3324.500244,1645.577026 
	C3337.852051,1658.609375 3350.984619,1671.868164 3364.100342,1685.139526 
	C3374.847168,1696.014038 3385.426025,1707.054810 3395.768066,1718.611816 
	C3337.534912,1777.883301 3279.665527,1836.617065 3221.667236,1895.223633 
	C3194.524902,1922.650757 3167.232910,1949.932007 3139.813721,1977.082275 
	C3127.320557,1989.452515 3114.122559,2001.112427 3101.673828,2013.525513 
	C3091.582764,2023.587769 3082.085449,2034.249512 3072.461670,2044.770630 
	C3071.219727,2046.128418 3070.800293,2048.238281 3070.000000,2050.000000 
z"/>
<path fill="#E4E8EB" opacity="1.000000" stroke="none" 
	d="
M3440.000000,478.003845 
	C3440.034424,471.801025 3437.090088,467.475555 3432.085693,463.908783 
	C3426.892822,460.207886 3426.731445,457.161713 3430.674072,452.413025 
	C3432.157471,450.626068 3433.924316,449.073212 3435.572998,447.424469 
	C3510.235596,372.759888 3584.897949,298.094788 3659.569336,223.438797 
	C3662.109619,220.899277 3664.741943,218.451721 3667.892578,215.421295 
	C3685.811279,230.376617 3701.687744,246.824814 3722.262695,258.020325 
	C3724.592773,255.938416 3726.873779,254.091461 3728.938232,252.027832 
	C3808.565186,172.435181 3888.190186,92.839996 3967.708252,13.138374 
	C3970.364258,10.476151 3971.915039,6.711191 3973.990479,2.730111 
	C4015.139893,2.000000 4056.280029,2.000000 4098.000000,2.000000 
	C4098.000000,22.704845 4098.000000,43.415104 4097.308594,65.114563 
	C4093.565674,68.580475 4090.264893,70.807449 4087.499512,73.569969 
	C4008.700684,152.281891 3929.951416,231.043320 3851.223145,309.825836 
	C3848.658691,312.392059 3846.399414,315.263245 3843.398193,318.281219 
	C3839.915039,321.326996 3836.976074,324.028748 3834.155762,326.848694 
	C3747.305908,413.684875 3660.453125,500.518127 3573.677246,587.428223 
	C3569.990479,591.120667 3567.035156,595.543213 3563.332275,600.129517 
	C3564.823730,601.666748 3567.308838,604.294312 3569.864502,606.851196 
	C3599.510498,636.512634 3629.179688,666.150940 3658.798096,695.839722 
	C3661.361084,698.408936 3663.606934,701.294434 3665.932129,704.720337 
	C3663.622559,708.226013 3661.618896,711.280151 3659.099854,713.823914 
	C3643.417236,729.659973 3627.489258,745.253906 3611.897217,761.177612 
	C3596.570068,776.831116 3581.568359,792.803101 3566.370361,808.583862 
	C3562.913086,812.173584 3559.220947,815.536499 3555.662842,819.030273 
	C3542.425781,832.028442 3529.199463,845.038025 3515.375244,857.743774 
	C3513.549072,856.330505 3512.264648,855.268555 3511.091309,854.095520 
	C3463.087891,806.092896 3415.088867,758.085938 3367.120361,710.048218 
	C3365.260010,708.185059 3363.706543,706.015625 3362.015625,703.260010 
	C3364.317627,699.051453 3366.103760,695.064514 3368.985840,692.168213 
	C3413.244385,647.690674 3457.654785,603.364014 3502.005615,558.978210 
	C3510.250244,550.727051 3510.265625,549.320740 3502.204102,541.228943 
	C3484.602783,523.561707 3466.921631,505.973907 3449.335449,488.291626 
	C3446.073242,485.011810 3443.104004,481.440704 3440.000000,478.003845 
z"/>
<path fill="#DCDFE4" opacity="1.000000" stroke="none" 
	d="
M3515.968994,858.043213 
	C3529.199463,845.038025 3542.425781,832.028442 3555.662842,819.030273 
	C3559.220947,815.536499 3562.913086,812.173584 3566.370361,808.583862 
	C3581.568359,792.803101 3596.570068,776.831116 3611.897217,761.177612 
	C3627.489258,745.253906 3643.417236,729.659973 3659.099854,713.823914 
	C3661.618896,711.280151 3663.622559,708.226013 3666.622559,704.648193 
	C3670.438232,701.417358 3673.750488,699.201172 3676.516357,696.437988 
	C3749.478760,623.546936 3822.376221,550.590759 3895.331543,477.692322 
	C3898.362305,474.663513 3902.072754,472.309387 3905.067383,469.250214 
	C3911.709473,462.465149 3920.333496,457.424835 3924.659180,447.967468 
	C3926.149170,447.208679 3927.049072,446.517731 3928.553223,445.574402 
	C3933.380371,440.864532 3937.603271,436.407074 3942.378906,431.577698 
	C3950.891846,422.877014 3958.706787,414.403381 3966.837158,406.244385 
	C4000.590820,372.373169 4034.430664,338.587769 4068.278809,304.810852 
	C4070.068848,303.024567 4072.223633,301.603699 4075.576660,298.916260 
	C4080.579346,304.497223 4085.035645,309.863220 4089.948730,314.772003 
	C4092.163086,316.984497 4095.288086,318.285370 4098.000000,319.999969 
	C4098.000000,384.041779 4098.000000,448.083588 4097.398438,513.345825 
	C4095.804932,515.452820 4094.766846,516.293274 4093.827637,517.232300 
	C4014.914062,596.124207 3936.004395,675.020203 3857.121338,753.943054 
	C3855.258545,755.807007 3853.700439,757.975891 3851.388184,760.236267 
	C3850.033447,761.135254 3849.256836,761.766968 3848.552979,762.470886 
	C3779.367676,831.643494 3710.183594,900.817078 3641.030762,970.022156 
	C3639.182861,971.871338 3637.675781,974.061035 3635.316895,976.008789 
	C3632.037109,973.927185 3629.197998,972.182007 3626.901855,969.892212 
	C3591.820801,934.906311 3556.802002,899.857788 3521.803711,864.789001 
	C3519.708740,862.690125 3517.906982,860.298645 3515.968994,858.043213 
z"/>
<path fill="#DCDFE4" opacity="1.000000" stroke="none" 
	d="
M2492.000000,1.999996 
	C2506.708496,2.000000 2521.416992,2.000000 2537.097412,2.694792 
	C2540.784180,6.684740 2543.245850,10.233163 2546.250244,13.238780 
	C2732.567383,199.629913 2918.928711,385.976898 3105.286377,572.327454 
	C3182.562500,649.600525 3259.838379,726.873474 3337.115967,804.144958 
	C3346.984619,814.012573 3346.991943,814.011108 3357.152832,803.855652 
	C3369.171387,791.843689 3381.100830,779.740540 3393.269287,767.882690 
	C3395.756348,765.458862 3399.130859,763.946106 3402.699707,762.274353 
	C3427.909668,786.406250 3452.571045,810.220764 3477.099121,834.171509 
	C3489.497070,846.277893 3501.631592,858.653687 3513.923096,870.869568 
	C3614.352783,970.681580 3714.799561,1070.476318 3815.220459,1170.296997 
	C3834.837891,1189.797363 3854.378662,1209.374878 3873.915771,1228.955444 
	C3876.148438,1231.192749 3878.129639,1233.681030 3880.523682,1236.387817 
	C3858.734375,1258.157349 3837.905762,1279.244507 3816.699219,1299.944580 
	C3811.833740,1304.693970 3805.669678,1308.113159 3799.501953,1311.819580 
	C3798.378906,1311.081909 3797.809570,1310.716675 3797.342285,1310.249756 
	C3722.773193,1235.723511 3648.225830,1161.175293 3573.627197,1086.678589 
	C3565.904297,1078.966187 3557.876465,1071.558716 3549.702148,1063.410400 
	C3548.536621,1061.812988 3547.711426,1060.762451 3546.773926,1059.824463 
	C3451.215576,964.246094 3355.652100,868.672852 3260.060547,773.127808 
	C3258.201660,771.269836 3256.007080,769.748169 3253.371582,767.759155 
	C3244.780762,759.573914 3236.654785,751.828430 3228.819336,743.799133 
	C3208.149902,722.617371 3187.775879,701.145081 3166.971436,680.097778 
	C3138.711182,651.508118 3110.200928,623.164917 3081.668945,594.846130 
	C3078.904297,592.102173 3075.231689,590.273132 3071.687744,587.422974 
	C3057.682861,572.335144 3044.290771,557.524475 3030.206299,543.404419 
	C2944.290283,457.273682 2858.220947,371.295532 2772.173828,285.295654 
	C2769.604736,282.728027 2766.711426,280.484375 2763.676758,277.488281 
	C2751.688477,265.697845 2739.762695,254.737411 2728.359863,243.257462 
	C2716.188965,231.003845 2704.742432,218.030884 2692.575195,205.773148 
	C2658.553223,171.497742 2624.333496,137.418182 2590.151123,103.302032 
	C2587.583008,100.738976 2584.692139,98.499146 2581.658203,95.502129 
	C2575.967529,90.013138 2570.305908,85.390251 2565.217529,80.204514 
	C2542.166016,56.710823 2519.239990,33.093124 2496.394043,9.399352 
	C2494.455811,7.389305 2493.442871,4.487546 2492.000000,1.999996 
z"/>
<path fill="#DCDFE4" opacity="1.000000" stroke="none" 
	d="
M4098.000000,1877.062744 
	C4095.519043,1876.495239 4092.608643,1875.418091 4090.621338,1873.421875 
	C4059.592041,1842.259766 4028.739502,1810.921631 3997.714600,1779.755249 
	C3986.445801,1768.435303 3974.696533,1757.594849 3963.396484,1746.305054 
	C3870.078857,1653.071411 3776.807617,1559.791382 3683.572266,1466.475464 
	C3680.803711,1463.704468 3678.580566,1460.388306 3676.318359,1456.024780 
	C3704.963623,1426.157227 3733.394043,1397.591919 3761.821777,1369.023682 
	C3763.936035,1366.898804 3766.032227,1364.755981 3768.132080,1362.616577 
	C3789.325195,1341.020752 3810.517334,1319.424194 3832.051025,1298.432373 
	C3832.805176,1299.558228 3833.170166,1300.126831 3833.637207,1300.593872 
	C3919.268555,1386.254150 4004.896973,1471.917725 4090.608398,1557.497803 
	C4092.592773,1559.478882 4095.515137,1560.520142 4098.000000,1562.000000 
	C4098.000000,1666.708496 4098.000000,1771.416870 4098.000000,1877.062744 
z"/>
<path fill="#F3F4F6" opacity="1.000000" stroke="none" 
	d="
M3636.009766,976.091797 
	C3637.675781,974.061035 3639.182861,971.871338 3641.030762,970.022156 
	C3710.183594,900.817078 3779.367676,831.643494 3848.552979,762.470886 
	C3849.256836,761.766968 3850.033447,761.135254 3851.378906,760.974792 
	C3849.391113,768.315735 3851.706299,773.573608 3857.033203,778.082703 
	C3862.842773,783.000244 3868.788330,787.820984 3874.106934,793.241272 
	C3884.322754,803.652893 3893.886475,814.708740 3904.190918,825.027405 
	C3913.955566,834.805298 3924.396729,843.903503 3934.400146,853.447510 
	C3942.513916,861.188538 3950.353271,869.216370 3958.435059,876.991699 
	C3968.713867,886.881165 3979.215576,896.539978 3989.439941,906.484802 
	C4008.020996,924.558105 4026.676514,942.563354 4044.894043,960.998901 
	C4056.042969,972.281250 4065.855713,984.885864 4078.958984,994.189758 
	C4080.740234,995.454468 4081.436035,998.156738 4083.089111,999.709656 
	C4087.521240,1003.873901 4090.325195,1010.516235 4098.000000,1010.000000 
	C4098.000000,1014.083374 4098.000000,1018.166748 4097.262207,1023.131104 
	C4094.030762,1025.423584 4091.101807,1026.394775 4089.135010,1028.339111 
	C4085.141113,1032.287231 4081.937744,1037.035767 4077.937012,1040.975952 
	C4044.018311,1074.382568 4009.891846,1107.578491 3976.032471,1141.044556 
	C3948.538574,1168.218872 3921.335449,1195.686768 3893.976074,1222.997070 
	C3891.473633,1225.494873 3888.773438,1227.794312 3885.922363,1230.408203 
	C3882.990723,1227.689941 3880.748779,1225.743896 3878.654297,1223.650269 
	C3821.854980,1166.868652 3765.060791,1110.081177 3708.315186,1053.245483 
	C3705.754150,1050.680542 3703.744873,1047.573853 3701.315430,1044.865723 
	C3698.876953,1042.147827 3696.257324,1039.589966 3693.676025,1037.003174 
	C3690.207520,1033.527588 3686.710449,1030.080566 3683.205078,1026.642090 
	C3680.364014,1023.854736 3677.554199,1021.030457 3674.617920,1018.345703 
	C3671.440674,1015.440796 3667.888428,1012.911743 3664.928467,1009.809692 
	C3656.905518,1001.401245 3649.020996,992.855225 3641.281738,984.185242 
	C3639.162354,981.810669 3637.747803,978.806763 3636.009766,976.091797 
z"/>
<path fill="#BBC3CB" opacity="1.000000" stroke="none" 
	d="
M3402.096191,762.013428 
	C3399.130859,763.946106 3395.756348,765.458862 3393.269287,767.882690 
	C3381.100830,779.740540 3369.171387,791.843689 3357.152832,803.855652 
	C3346.991943,814.011108 3346.984619,814.012573 3337.115967,804.144958 
	C3259.838379,726.873474 3182.562500,649.600525 3105.286377,572.327454 
	C2918.928711,385.976898 2732.567383,199.629913 2546.250244,13.238780 
	C2543.245850,10.233163 2540.784180,6.684740 2538.034668,2.694792 
	C2574.708496,2.000000 2611.416992,2.000000 2649.272461,2.642840 
	C2653.389648,6.851063 2656.108887,10.665984 2659.368408,13.943898 
	C2700.253662,55.059322 2741.282227,96.032585 2782.146240,137.169052 
	C2851.383545,206.868408 2920.477783,276.710236 2989.726074,346.398743 
	C3107.401123,464.821442 3225.127441,583.193420 3342.888672,701.530334 
	C3361.923828,720.658264 3381.263916,739.482483 3400.402832,758.507507 
	C3401.270996,759.370544 3401.545166,760.831116 3402.096191,762.013428 
z"/>
<path fill="#F7F8F9" opacity="1.000000" stroke="none" 
	d="
M4098.000000,1009.062683 
	C4090.325195,1010.516235 4087.521240,1003.873901 4083.089111,999.709656 
	C4081.436035,998.156738 4080.740234,995.454468 4078.958984,994.189758 
	C4065.855713,984.885864 4056.042969,972.281250 4044.894043,960.998901 
	C4026.676514,942.563354 4008.020996,924.558105 3989.439941,906.484802 
	C3979.215576,896.539978 3968.713867,886.881165 3958.435059,876.991699 
	C3950.353271,869.216370 3942.513916,861.188538 3934.400146,853.447510 
	C3924.396729,843.903503 3913.955566,834.805298 3904.190918,825.027405 
	C3893.886475,814.708740 3884.322754,803.652893 3874.106934,793.241272 
	C3868.788330,787.820984 3862.842773,783.000244 3857.033203,778.082703 
	C3851.706299,773.573608 3849.391113,768.315735 3851.990723,760.741028 
	C3853.700439,757.975891 3855.258545,755.807007 3857.121338,753.943054 
	C3936.004395,675.020203 4014.914062,596.124207 4093.827637,517.232300 
	C4094.766846,516.293274 4095.804932,515.452820 4097.398438,514.283203 
	C4098.000000,678.708435 4098.000000,843.416931 4098.000000,1009.062683 
z"/>
<path fill="#FCFCFD" opacity="1.000000" stroke="none" 
	d="
M4098.000000,319.062653 
	C4095.288086,318.285370 4092.163086,316.984497 4089.948730,314.772003 
	C4085.035645,309.863220 4080.579346,304.497223 4075.576660,298.916260 
	C4072.223633,301.603699 4070.068848,303.024567 4068.278809,304.810852 
	C4034.430664,338.587769 4000.590820,372.373169 3966.837158,406.244385 
	C3958.706787,414.403381 3950.891846,422.877014 3941.661621,431.603394 
	C3933.442871,434.088531 3928.428223,437.916748 3927.948975,445.826843 
	C3927.049072,446.517731 3926.149170,447.208679 3923.934570,448.030212 
	C3916.218506,453.505951 3910.720703,451.598175 3905.260742,446.375061 
	C3897.197510,438.661896 3888.614990,431.477844 3880.748779,423.575836 
	C3871.240723,414.024506 3862.622070,403.572449 3852.932373,394.221436 
	C3842.711182,384.357422 3831.749756,375.251709 3820.981201,365.966034 
	C3812.971436,359.059418 3812.561279,357.167755 3818.698242,348.851624 
	C3820.264648,346.728851 3822.191406,344.857239 3824.054199,342.970734 
	C3829.191406,337.768097 3834.321289,332.555420 3839.577393,327.474243 
	C3842.312012,324.830872 3844.552979,322.101929 3843.997803,317.992310 
	C3846.399414,315.263245 3848.658691,312.392059 3851.223145,309.825836 
	C3929.951416,231.043320 4008.700684,152.281891 4087.499512,73.569969 
	C4090.264893,70.807449 4093.565674,68.580475 4097.308594,66.051880 
	C4098.000000,150.041794 4098.000000,234.083572 4098.000000,319.062653 
z"/>
<path fill="#FCFCFD" opacity="1.000000" stroke="none" 
	d="
M3122.193604,1490.013916 
	C3120.402100,1492.718384 3118.944824,1495.737183 3116.755127,1498.066895 
	C3110.826660,1504.373779 3104.549316,1510.351318 3098.477051,1516.524780 
	C3057.865967,1557.811768 3017.384277,1599.226196 2976.648926,1640.389771 
	C2903.817627,1713.986694 2831.385254,1787.991943 2757.669189,1860.694092 
	C2724.545898,1893.361694 2689.984131,1924.598877 2657.233887,1957.697998 
	C2650.010986,1964.997803 2641.884277,1971.396973 2634.545898,1978.590576 
	C2629.589844,1983.448853 2625.643799,1989.348389 2620.626221,1994.132080 
	C2602.353027,2011.552979 2583.811523,2028.692383 2565.414307,2045.983765 
	C2564.743164,2046.614380 2564.523926,2047.725342 2564.047119,2049.306152 
	C2485.958252,2050.000000 2407.916260,2050.000000 2328.937256,2050.000000 
	C2329.460449,2047.514160 2330.473145,2044.581421 2332.445312,2042.606689 
	C2404.887939,1970.069336 2477.419434,1897.620728 2549.942871,1825.164185 
	C2550.176025,1824.930908 2550.468018,1824.756592 2552.081543,1824.191284 
	C2559.353516,1820.812378 2563.764648,1822.466675 2568.401611,1827.174072 
	C2577.639893,1836.552612 2587.567871,1845.250366 2597.149170,1854.294434 
	C2598.333008,1855.411621 2599.022217,1857.039307 2600.150635,1858.231567 
	C2602.637939,1860.859497 2605.237305,1863.382935 2607.831543,1865.907349 
	C2610.426270,1868.432129 2613.183105,1870.799561 2615.668213,1873.425659 
	C2619.994629,1877.997559 2624.043213,1882.835693 2628.431152,1887.345215 
	C2635.762939,1894.879395 2643.207031,1902.307495 2650.726318,1909.654907 
	C2655.712646,1914.527466 2660.769287,1919.352905 2666.109619,1923.823242 
	C2667.623535,1925.090454 2671.128662,1926.208252 2672.211426,1925.392212 
	C2678.285156,1920.814331 2685.942383,1919.432129 2691.632568,1913.666748 
	C2733.653076,1871.088989 2776.136475,1828.968628 2818.338623,1786.569336 
	C2826.758057,1778.110596 2834.347900,1768.826660 2842.759521,1760.359619 
	C2856.314209,1746.715698 2870.234131,1733.434326 2884.292480,1719.402832 
	C2896.357910,1707.566895 2908.262451,1696.462036 2919.880127,1685.064941 
	C2961.472412,1644.262939 3002.918457,1603.311646 3044.519531,1562.518555 
	C3067.801758,1539.688232 3091.244385,1517.020508 3114.735352,1494.404907 
	C3116.757080,1492.458862 3119.686035,1491.455200 3122.193604,1490.013916 
z"/>
<path fill="#FCFCFD" opacity="1.000000" stroke="none" 
	d="
M2491.062744,1.999996 
	C2493.442871,4.487546 2494.455811,7.389305 2496.394043,9.399352 
	C2519.239990,33.093124 2542.166016,56.710823 2565.217529,80.204514 
	C2570.305908,85.390251 2575.967529,90.013138 2581.583740,96.242081 
	C2580.899658,108.206375 2572.722900,113.977715 2566.077881,120.581848 
	C2556.514160,130.086777 2546.467285,139.104584 2536.692139,148.399368 
	C2535.517090,149.516571 2534.902832,151.211060 2533.766846,152.384476 
	C2529.397217,156.897690 2524.988770,161.378326 2520.458740,165.729416 
	C2517.842773,168.242035 2514.746338,170.272461 2512.246094,172.883896 
	C2501.701416,183.897949 2491.352295,195.099136 2480.822266,206.127701 
	C2475.842041,211.343735 2470.961426,216.748428 2465.398682,221.286911 
	C2460.380859,225.380783 2455.437744,230.332214 2448.044189,229.979492 
	C2442.830811,224.464966 2437.792725,218.771301 2432.373779,213.466797 
	C2408.892334,190.481110 2385.102295,167.807739 2361.789551,144.653152 
	C2317.588379,100.751289 2273.622314,56.612602 2229.619873,12.511248 
	C2226.851562,9.736601 2224.611084,6.434985 2222.062500,2.689267 
	C2311.375244,2.000000 2400.750244,2.000000 2491.062744,1.999996 
z"/>
<path fill="#DCDFE4" opacity="1.000000" stroke="none" 
	d="
M4098.000000,1130.000000 
	C4098.000000,1235.375122 4098.000000,1340.750244 4097.305664,1447.025146 
	C4092.161865,1444.052490 4087.462402,1440.429199 4083.306641,1436.263550 
	C4067.407227,1420.326172 4051.683105,1404.214111 4036.244629,1387.954102 
	C4036.742676,1387.513794 4037.060791,1387.146973 4037.008545,1387.082886 
	C4036.684570,1386.686157 4036.276855,1386.357666 4035.949707,1385.994263 
	C4036.002197,1385.982056 4035.994873,1386.089600 4035.781494,1385.623535 
	C4035.016113,1384.773682 4034.464111,1384.390015 4033.960938,1383.998413 
	C4034.010254,1383.990479 4033.993408,1384.088623 4033.781738,1383.622070 
	C4033.017822,1382.773315 4032.465576,1382.390991 4031.961914,1381.999756 
	C4032.010010,1381.990845 4031.991455,1382.086914 4031.782715,1381.619385 
	C4031.020752,1380.771362 4030.468018,1380.390991 4029.962402,1380.000610 
	C4030.009766,1379.990723 4029.989746,1380.085205 4029.782471,1379.617188 
	C4029.022217,1378.769775 4028.469238,1378.390625 4027.962891,1378.001221 
	C4028.009766,1377.991089 4027.988525,1378.084473 4027.782959,1377.616943 
	C4027.025146,1376.771729 4026.473145,1376.394165 4025.964111,1376.004883 
	C4026.007324,1375.993286 4025.983887,1376.079590 4025.779541,1375.612549 
	C4025.023682,1374.769287 4024.472168,1374.393066 4023.963867,1374.004883 
	C4024.007080,1373.992798 4023.983887,1374.079468 4023.779541,1373.612305 
	C4023.023682,1372.769165 4022.472168,1372.392944 4021.962402,1372.037476 
	C4022.004395,1372.058228 4021.942627,1372.132324 4021.892578,1371.437744 
	C4019.840576,1368.152588 4018.077637,1365.327515 4015.800781,1363.006470 
	C3975.962891,1322.395386 3936.057617,1281.850342 3896.192871,1241.265381 
	C3894.884521,1239.933472 3893.847168,1238.335327 3892.612793,1236.771851 
	C3893.878662,1235.321777 3894.695068,1234.286499 3895.612549,1233.350464 
	C3927.449463,1200.859009 3959.249023,1168.330688 3991.160645,1135.912842 
	C4007.041504,1119.780029 4023.066895,1103.786987 4039.194092,1087.900879 
	C4041.664795,1085.467041 4045.041992,1083.953735 4048.285645,1082.614380 
	C4062.807861,1097.575073 4076.992676,1111.988403 4091.348389,1126.229248 
	C4093.094482,1127.961304 4095.760254,1128.765747 4098.000000,1130.000000 
z"/>
<path fill="#FCFCFD" opacity="1.000000" stroke="none" 
	d="
M4048.000000,1082.014648 
	C4045.041992,1083.953735 4041.664795,1085.467041 4039.194092,1087.900879 
	C4023.066895,1103.786987 4007.041504,1119.780029 3991.160645,1135.912842 
	C3959.249023,1168.330688 3927.449463,1200.859009 3895.612549,1233.350464 
	C3894.695068,1234.286499 3893.878662,1235.321777 3892.612793,1236.771851 
	C3893.847168,1238.335327 3894.884521,1239.933472 3896.192871,1241.265381 
	C3936.057617,1281.850342 3975.962891,1322.395386 4015.800781,1363.006470 
	C4018.077637,1365.327515 4019.840576,1368.152588 4021.197754,1371.397705 
	C4018.941406,1370.927612 4017.140869,1369.998413 4015.748047,1368.648315 
	C3994.764160,1348.304932 3973.744873,1327.996704 3952.916016,1307.495361 
	C3933.017578,1287.909302 3913.339111,1268.099976 3893.537842,1248.415039 
	C3891.482666,1246.371948 3889.251465,1244.505981 3888.318848,1243.660889 
	C3869.120605,1262.030640 3850.415039,1279.929077 3831.709473,1297.827637 
	C3810.517334,1319.424194 3789.325195,1341.020752 3768.132080,1362.616577 
	C3766.032227,1364.755981 3763.936035,1366.898804 3761.821777,1369.023682 
	C3733.394043,1397.591919 3704.963623,1426.157227 3676.271240,1455.329590 
	C3674.821777,1456.468628 3673.348145,1456.714844 3672.489014,1457.574951 
	C3550.458740,1579.710571 3428.604980,1702.023315 3306.434082,1824.018066 
	C3234.749512,1895.599365 3162.550537,1966.665649 3090.640869,2038.022095 
	C3087.391602,2041.246582 3084.718506,2045.051636 3081.888672,2049.292969 
	C3078.571289,2050.000000 3075.142578,2050.000000 3070.856934,2050.000000 
	C3070.800293,2048.238281 3071.219727,2046.128418 3072.461670,2044.770630 
	C3082.085449,2034.249512 3091.582764,2023.587769 3101.673828,2013.525513 
	C3114.122559,2001.112427 3127.320557,1989.452515 3139.813721,1977.082275 
	C3167.232910,1949.932007 3194.524902,1922.650757 3221.667236,1895.223633 
	C3279.665527,1836.617065 3337.534912,1777.883301 3396.359375,1718.318481 
	C3398.256836,1716.556885 3399.303955,1715.729736 3400.240723,1714.792725 
	C3461.139648,1653.900146 3522.033936,1593.003052 3582.900146,1532.077637 
	C3584.760254,1530.215820 3586.319580,1528.053589 3588.593262,1525.752930 
	C3591.457031,1522.992676 3593.747070,1520.510742 3596.629883,1517.730103 
	C3604.824951,1509.634644 3612.427246,1501.838013 3620.625488,1493.745117 
	C3643.359619,1471.432373 3665.403076,1449.320435 3687.658203,1427.423584 
	C3715.567871,1399.963623 3743.671387,1372.700928 3771.646973,1345.307739 
	C3779.657471,1337.463867 3787.698486,1329.634399 3795.329590,1321.430054 
	C3797.611084,1318.977051 3798.549561,1315.274658 3800.103271,1312.144531 
	C3805.669678,1308.113159 3811.833740,1304.693970 3816.699219,1299.944580 
	C3837.905762,1279.244507 3858.734375,1258.157349 3880.523682,1236.387817 
	C3878.129639,1233.681030 3876.148438,1231.192749 3873.915771,1228.955444 
	C3854.378662,1209.374878 3834.837891,1189.797363 3815.220459,1170.296997 
	C3714.799561,1070.476318 3614.352783,970.681580 3513.923096,870.869568 
	C3501.631592,858.653687 3489.497070,846.277893 3477.099121,834.171509 
	C3452.571045,810.220764 3427.909668,786.406250 3402.699707,762.274292 
	C3401.545166,760.831116 3401.270996,759.370544 3400.402832,758.507507 
	C3381.263916,739.482483 3361.923828,720.658264 3342.888672,701.530334 
	C3225.127441,583.193420 3107.401123,464.821442 2989.726074,346.398743 
	C2920.477783,276.710236 2851.383545,206.868408 2782.146240,137.169052 
	C2741.282227,96.032585 2700.253662,55.059322 2659.368408,13.943898 
	C2656.108887,10.665984 2653.389648,6.851063 2650.209473,2.642840 
	C2674.041748,2.000000 2698.083740,2.000000 2722.992920,2.688821 
	C2721.856201,5.968746 2720.063965,8.763618 2717.806885,11.111601 
	C2711.803467,17.356785 2705.490723,23.305452 2699.511230,29.572712 
	C2695.061768,34.236492 2694.196777,38.993622 2698.145752,42.795300 
	C2707.429932,51.732838 2714.821289,62.815369 2726.991211,68.632576 
	C2729.048828,69.616142 2731.604004,72.217247 2731.683594,74.162872 
	C2731.889160,79.188889 2734.955566,81.959198 2738.005859,85.008766 
	C2768.642090,115.639366 2799.265381,146.282639 2829.928955,176.885757 
	C2831.794922,178.747864 2833.969238,180.300735 2836.274902,182.572998 
	C2839.033447,185.431702 2841.516602,187.714951 2844.273682,190.574432 
	C2847.031494,193.433243 2849.515869,195.715820 2852.291748,198.596161 
	C2868.826416,214.899216 2885.275879,230.397049 2901.275146,246.346939 
	C2960.948242,305.836212 3020.421875,365.525665 3080.119873,424.990295 
	C3087.615479,432.456696 3095.999512,439.031464 3104.051758,446.705841 
	C3105.907715,449.741089 3107.400635,452.390259 3109.513672,454.381165 
	C3115.300781,459.833435 3121.640137,464.720490 3127.221436,470.364594 
	C3134.679443,477.906281 3141.357910,486.222778 3148.869873,493.705902 
	C3157.326660,502.129944 3166.611572,509.722931 3175.063965,518.151123 
	C3234.475098,577.394836 3293.757568,636.767700 3353.114502,696.065857 
	C3355.918945,698.867554 3359.037598,701.355164 3362.009766,703.989014 
	C3363.706543,706.015625 3365.260010,708.185059 3367.120361,710.048218 
	C3415.088867,758.085938 3463.087891,806.092896 3511.091309,854.095520 
	C3512.264648,855.268555 3513.549072,856.330505 3515.375244,857.743774 
	C3517.906982,860.298645 3519.708740,862.690125 3521.803711,864.789001 
	C3556.802002,899.857788 3591.820801,934.906311 3626.901855,969.892212 
	C3629.197998,972.182007 3632.037109,973.927185 3635.316895,976.008667 
	C3637.747803,978.806763 3639.162354,981.810669 3641.281738,984.185242 
	C3649.020996,992.855225 3656.905518,1001.401245 3664.928467,1009.809692 
	C3667.888428,1012.911743 3671.440674,1015.440796 3674.617920,1018.345703 
	C3677.554199,1021.030457 3680.364014,1023.854736 3683.205078,1026.642090 
	C3686.710449,1030.080566 3690.207520,1033.527588 3693.676025,1037.003174 
	C3696.257324,1039.589966 3698.876953,1042.147827 3701.315430,1044.865723 
	C3703.744873,1047.573853 3705.754150,1050.680542 3708.315186,1053.245483 
	C3765.060791,1110.081177 3821.854980,1166.868652 3878.654297,1223.650269 
	C3880.748779,1225.743896 3882.990723,1227.689941 3885.922363,1230.408203 
	C3888.773438,1227.794312 3891.473633,1225.494873 3893.976074,1222.997070 
	C3921.335449,1195.686768 3948.538574,1168.218872 3976.032471,1141.044556 
	C4009.891846,1107.578491 4044.018311,1074.382568 4077.937012,1040.975952 
	C4081.937744,1037.035767 4085.141113,1032.287231 4089.135010,1028.339111 
	C4091.101807,1026.394775 4094.030762,1025.423584 4097.262207,1024.006104 
	C4098.000000,1027.428711 4098.000000,1030.857422 4097.258789,1035.152588 
	C4092.553711,1038.138672 4087.909180,1039.535278 4084.748535,1042.508911 
	C4073.688721,1052.913452 4063.064941,1063.788208 4052.467773,1074.671265 
	C4050.519531,1076.672119 4049.466309,1079.544556 4048.000000,1082.014648 
z"/>
<path fill="#BBC3CB" opacity="1.000000" stroke="none" 
	d="
M3832.051025,1298.432251 
	C3850.415039,1279.929077 3869.120605,1262.030640 3888.318848,1243.660889 
	C3889.251465,1244.505981 3891.482666,1246.371948 3893.537842,1248.415039 
	C3913.339111,1268.099976 3933.017578,1287.909302 3952.916016,1307.495361 
	C3973.744873,1327.996704 3994.764160,1348.304932 4015.748047,1368.648315 
	C4017.140869,1369.998413 4018.941406,1370.927612 4021.247559,1372.092407 
	C4021.942627,1372.132324 4022.004395,1372.058228 4022.101562,1372.552856 
	C4022.793945,1373.391479 4023.388916,1373.735474 4023.983887,1374.079468 
	C4023.983887,1374.079468 4024.007080,1373.992798 4024.102539,1374.520508 
	C4024.793457,1375.391846 4025.388672,1375.735718 4025.983887,1376.079590 
	C4025.983887,1376.079590 4026.007324,1375.993286 4026.105469,1376.518433 
	C4026.798828,1377.390503 4027.393555,1377.737549 4027.988525,1378.084473 
	C4027.988525,1378.084473 4028.009766,1377.991089 4028.115234,1378.510498 
	C4028.810547,1379.381592 4029.400146,1379.733398 4029.989746,1380.085205 
	C4029.989746,1380.085205 4030.009766,1379.990723 4030.116699,1380.509155 
	C4030.812988,1381.380737 4031.402344,1381.733765 4031.991455,1382.086914 
	C4031.991455,1382.086914 4032.010010,1381.990845 4032.119141,1382.507202 
	C4032.816406,1383.378540 4033.405029,1383.733521 4033.993408,1384.088623 
	C4033.993408,1384.088623 4034.010254,1383.990479 4034.119873,1384.505859 
	C4034.817871,1385.377319 4035.406494,1385.733398 4035.994873,1386.089600 
	C4035.994873,1386.089600 4036.002197,1385.982056 4035.901611,1386.534668 
	C4035.831787,1387.447266 4035.862549,1387.807373 4035.893555,1388.167480 
	C4051.683105,1404.214111 4067.407227,1420.326172 4083.306641,1436.263550 
	C4087.462402,1440.429199 4092.161865,1444.052490 4097.305664,1447.962402 
	C4098.000000,1485.375122 4098.000000,1522.750244 4098.000000,1561.062744 
	C4095.515137,1560.520142 4092.592773,1559.478882 4090.608398,1557.497803 
	C4004.896973,1471.917725 3919.268555,1386.254150 3833.637207,1300.593872 
	C3833.170166,1300.126831 3832.805176,1299.558228 3832.051025,1298.432251 
z"/>
<path fill="#F7F8F9" opacity="1.000000" stroke="none" 
	d="
M2836.000000,181.997543 
	C2833.969238,180.300735 2831.794922,178.747864 2829.928955,176.885757 
	C2799.265381,146.282639 2768.642090,115.639366 2738.005859,85.008766 
	C2734.955566,81.959198 2731.889160,79.188889 2731.683594,74.162872 
	C2731.604004,72.217247 2729.048828,69.616142 2726.991211,68.632576 
	C2714.821289,62.815369 2707.429932,51.732838 2698.145752,42.795300 
	C2694.196777,38.993622 2695.061768,34.236492 2699.511230,29.572712 
	C2705.490723,23.305452 2711.803467,17.356785 2717.806885,11.111601 
	C2720.063965,8.763618 2721.856201,5.968746 2723.930176,2.688821 
	C2804.041748,2.000000 2884.083740,2.000000 2965.062744,2.000014 
	C2967.011475,3.524293 2967.912109,5.138298 2969.057861,6.553772 
	C2971.269287,9.285792 2973.619385,11.905517 2975.399902,15.563268 
	C2964.496338,28.132145 2954.449951,40.044884 2943.614258,51.190331 
	C2933.286133,61.813408 2920.462646,69.796837 2911.126465,81.609871 
	C2908.321289,85.159264 2903.467773,87.080048 2900.622803,90.609489 
	C2885.409180,109.483635 2868.645752,126.890221 2851.235352,143.693451 
	C2845.042236,149.670593 2838.253662,155.032166 2832.086426,161.034103 
	C2826.742920,166.234268 2826.793701,167.149048 2831.597412,172.476288 
	C2834.129150,175.283646 2836.549316,177.881958 2836.000000,181.997543 
z"/>
<path fill="#F7F8F9" opacity="1.000000" stroke="none" 
	d="
M4048.285645,1082.614258 
	C4049.466309,1079.544556 4050.519531,1076.672119 4052.467773,1074.671265 
	C4063.064941,1063.788208 4073.688721,1052.913452 4084.748535,1042.508911 
	C4087.909180,1039.535278 4092.553711,1038.138672 4097.258789,1036.009521 
	C4098.000000,1066.708496 4098.000000,1097.416870 4098.000000,1129.062744 
	C4095.760254,1128.765747 4093.094482,1127.961304 4091.348389,1126.229248 
	C4076.992676,1111.988403 4062.807861,1097.575073 4048.285645,1082.614258 
z"/>
<path fill="#F7F8F9" opacity="1.000000" stroke="none" 
	d="
M2448.323730,230.582092 
	C2455.437744,230.332214 2460.380859,225.380783 2465.398682,221.286911 
	C2470.961426,216.748428 2475.842041,211.343735 2480.822266,206.127701 
	C2491.352295,195.099136 2501.701416,183.897949 2512.246094,172.883896 
	C2514.746338,170.272461 2517.842773,168.242035 2520.458740,165.729416 
	C2524.988770,161.378326 2529.397217,156.897690 2533.766846,152.384476 
	C2534.902832,151.211060 2535.517090,149.516571 2536.692139,148.399368 
	C2546.467285,139.104584 2556.514160,130.086777 2566.077881,120.581848 
	C2572.722900,113.977715 2580.899658,108.206375 2581.876709,96.848969 
	C2584.692139,98.499146 2587.583008,100.738976 2590.151123,103.302032 
	C2624.333496,137.418182 2658.553223,171.497742 2692.575195,205.773148 
	C2704.742432,218.030884 2716.188965,231.003845 2728.359863,243.257462 
	C2739.762695,254.737411 2751.688477,265.697845 2763.686523,278.277344 
	C2764.429443,284.185242 2763.249268,287.845306 2759.872314,291.292725 
	C2750.209473,301.157074 2741.238525,311.707733 2731.435547,321.423401 
	C2715.949707,336.770935 2699.902344,351.549744 2684.292480,366.774109 
	C2671.234131,379.509674 2658.308105,392.390259 2645.645264,405.516907 
	C2641.185303,410.140289 2636.597656,413.119507 2630.019531,411.991211 
	C2627.283691,409.588196 2624.414795,407.319763 2621.833252,404.760925 
	C2599.601318,382.724762 2577.420898,360.636169 2554.632812,338.264282 
	C2539.426514,323.035156 2524.870605,308.047729 2510.185059,293.188660 
	C2489.708496,272.470428 2469.135010,251.848083 2448.323730,230.582092 
z"/>
<path fill="#E4E8EB" opacity="1.000000" stroke="none" 
	d="
M3588.019531,1526.031494 
	C3586.319580,1528.053589 3584.760254,1530.215820 3582.900146,1532.077637 
	C3522.033936,1593.003052 3461.139648,1653.900146 3400.240723,1714.792725 
	C3399.303955,1715.729736 3398.256836,1716.556885 3396.670410,1717.728638 
	C3385.426025,1707.054810 3374.847168,1696.014038 3364.100342,1685.139526 
	C3350.984619,1671.868164 3337.852051,1658.609375 3324.500244,1645.577026 
	C3307.843262,1629.318115 3290.858154,1613.395508 3274.199219,1597.138672 
	C3261.114990,1584.369995 3248.413574,1571.209717 3235.360107,1558.408936 
	C3208.274902,1531.846680 3181.006592,1505.470947 3153.985840,1478.843506 
	C3150.343506,1475.254272 3146.624023,1473.342529 3141.073242,1473.385986 
	C3144.992432,1467.843872 3149.441650,1462.920532 3153.890625,1457.997192 
	C3146.029541,1457.377319 3141.958984,1453.031372 3137.684570,1448.743164 
	C3105.973877,1416.927979 3074.187744,1385.187744 3042.421143,1353.428223 
	C3040.539307,1351.546509 3038.675537,1349.641357 3036.706787,1347.853271 
	C3034.426758,1345.782227 3031.719971,1345.363525 3029.589111,1347.684937 
	C3023.839111,1353.949097 3015.900635,1358.341064 3013.220947,1367.274292 
	C3011.570801,1372.775146 3007.530762,1376.710205 3001.980713,1377.504883 
	C2997.172852,1378.193237 2994.177002,1380.754272 2991.138428,1383.858765 
	C2989.044434,1385.998291 2986.907471,1388.097656 2984.738770,1390.161743 
	C2972.567871,1401.744873 2960.286865,1413.214111 2948.229980,1424.914551 
	C2938.272949,1434.576904 2928.544922,1444.476807 2918.774658,1454.330200 
	C2914.565674,1458.574707 2910.546143,1463.006470 2906.370850,1467.285156 
	C2898.335449,1475.519409 2890.332764,1483.788208 2882.162354,1491.887085 
	C2873.970703,1500.006836 2864.832275,1507.312378 2857.551514,1516.161987 
	C2852.366455,1522.464478 2846.787109,1527.744263 2840.031494,1532.028564 
	C2837.755371,1528.087524 2836.178467,1523.460205 2833.091309,1520.315308 
	C2810.923340,1497.732056 2788.523438,1475.374268 2766.004150,1453.140259 
	C2761.787842,1448.977417 2756.511475,1445.907715 2752.085205,1441.931763 
	C2748.938477,1439.104736 2745.953613,1435.885986 2743.690674,1432.335815 
	C2740.356934,1427.104858 2741.269775,1421.892578 2745.987061,1417.080200 
	C2755.750732,1407.119263 2765.705811,1397.346558 2775.540039,1387.453979 
	C2886.297607,1276.039551 2997.067871,1164.637329 3107.767822,1053.165405 
	C3118.997559,1041.857178 3129.791260,1030.115845 3141.568848,1018.622559 
	C3142.905518,1018.432678 3143.460449,1018.195618 3144.015381,1017.958618 
	C3144.015381,1017.958679 3144.008057,1018.008057 3144.437500,1017.793335 
	C3145.249268,1017.038635 3145.631348,1016.498657 3146.013428,1015.958618 
	C3146.013428,1015.958618 3146.008545,1016.007996 3146.438477,1015.794067 
	C3147.249268,1015.039734 3147.630371,1014.499390 3148.011475,1013.959106 
	C3148.011475,1013.959106 3148.008545,1014.007996 3148.439209,1013.794678 
	C3149.249756,1013.040833 3149.629639,1012.500305 3150.009521,1011.959778 
	C3150.009521,1011.959778 3150.008789,1012.007996 3150.439453,1011.794983 
	C3151.249512,1011.041382 3151.628418,1010.500793 3152.007324,1009.960205 
	C3152.007568,1009.960266 3152.008789,1010.007812 3152.440430,1009.795410 
	C3153.250244,1009.042480 3153.628418,1008.501892 3154.006348,1007.961304 
	C3154.006348,1007.961304 3154.009033,1008.008118 3154.441406,1007.796021 
	C3155.250732,1007.043335 3155.627930,1006.502747 3156.005371,1005.962158 
	C3156.005371,1005.962219 3156.002930,1006.008484 3156.674316,1005.940735 
	C3166.771240,997.037292 3176.233643,988.240173 3185.596680,979.338501 
	C3187.922119,977.127563 3189.925293,974.577881 3192.385254,971.840088 
	C3189.534912,968.810669 3187.343018,966.359131 3185.023682,964.034973 
	C3166.664307,945.638733 3148.226318,927.320251 3129.969482,908.823120 
	C3127.515869,906.337463 3125.938721,902.986816 3124.384766,899.503784 
	C3131.638916,893.884644 3139.186035,889.523315 3145.154785,883.577332 
	C3163.694092,865.108093 3181.401367,845.805359 3199.879395,827.272278 
	C3215.075439,812.030945 3230.904541,797.420654 3246.465332,782.543396 
	C3250.624512,778.566895 3254.329102,774.377930 3253.969238,768.069580 
	C3256.007080,769.748169 3258.201660,771.269836 3260.060547,773.127808 
	C3355.652100,868.672852 3451.215576,964.246094 3546.773926,1059.824463 
	C3547.711426,1060.762451 3548.536621,1061.812988 3549.014160,1063.476074 
	C3545.553711,1066.617065 3542.242920,1068.841797 3539.470947,1071.606567 
	C3497.089355,1113.881226 3454.765625,1156.214233 3412.485840,1198.590820 
	C3410.402100,1200.679565 3408.863770,1203.307739 3407.032227,1205.654175 
	C3404.179199,1209.309448 3401.447754,1213.076050 3398.376465,1216.539795 
	C3395.287842,1220.022461 3391.166992,1222.767090 3388.755615,1226.621582 
	C3386.443359,1230.316895 3385.744385,1235.021484 3384.274658,1239.470337 
	C3379.465332,1240.147095 3373.885254,1240.083618 3372.369141,1246.269775 
	C3370.861816,1252.420776 3376.374756,1254.809814 3379.558838,1258.398315 
	C3379.776123,1258.643066 3380.078857,1258.810913 3380.335693,1259.022095 
	C3390.471191,1267.354370 3402.625732,1273.495117 3409.174805,1285.740234 
	C3409.738037,1286.793701 3411.231201,1287.349487 3412.291748,1288.137573 
	C3426.235840,1298.497314 3436.463623,1312.655029 3449.184082,1324.270142 
	C3451.846436,1326.700928 3453.054932,1329.656860 3450.491699,1333.427124 
	C3442.766602,1334.021729 3438.972900,1327.942017 3434.535889,1323.373779 
	C3424.854248,1313.405640 3415.499512,1303.120117 3405.974609,1292.998291 
	C3404.151611,1291.060913 3402.335938,1289.046143 3400.217773,1287.468506 
	C3390.836670,1280.481567 3382.415283,1272.690918 3376.086182,1262.654419 
	C3372.233398,1256.544434 3365.748779,1256.590088 3361.180420,1262.068604 
	C3358.211914,1265.628296 3355.247070,1269.190918 3352.296143,1272.765137 
	C3347.031006,1279.142700 3347.025391,1283.072144 3352.526611,1289.428589 
	C3354.701172,1291.940674 3357.129883,1294.245361 3359.556641,1296.523438 
	C3369.449951,1305.811035 3379.623779,1314.814209 3389.229736,1324.388184 
	C3396.470459,1331.604370 3404.239990,1338.217651 3410.325684,1346.765381 
	C3415.019531,1353.358032 3422.613525,1357.807739 3428.410645,1363.708618 
	C3440.884277,1376.406128 3452.869385,1389.584351 3465.377441,1402.246826 
	C3471.892822,1408.842773 3479.307617,1414.543091 3485.939941,1421.032227 
	C3499.746094,1434.540649 3513.316162,1448.290771 3526.953369,1461.971191 
	C3531.479492,1466.511353 3534.451172,1472.852417 3542.133057,1473.579590 
	C3544.075928,1473.763672 3545.960205,1476.092407 3547.598877,1477.711914 
	C3557.918945,1487.911133 3568.494629,1497.883911 3578.281250,1508.576538 
	C3582.726562,1513.433472 3589.618896,1517.553955 3588.019531,1526.031494 
z"/>
<path fill="#F3F4F6" opacity="1.000000" stroke="none" 
	d="
M2630.302734,412.592560 
	C2636.597656,413.119507 2641.185303,410.140289 2645.645264,405.516907 
	C2658.308105,392.390259 2671.234131,379.509674 2684.292480,366.774109 
	C2699.902344,351.549744 2715.949707,336.770935 2731.435547,321.423401 
	C2741.238525,311.707733 2750.209473,301.157074 2759.872314,291.292725 
	C2763.249268,287.845306 2764.429443,284.185242 2763.979248,278.878723 
	C2766.711426,280.484375 2769.604736,282.728027 2772.173828,285.295654 
	C2858.220947,371.295532 2944.290283,457.273682 3030.206299,543.404419 
	C3044.290771,557.524475 3057.682861,572.335144 3071.623047,588.112183 
	C3065.714600,598.940247 3057.102783,606.158752 3049.105713,614.003357 
	C3030.612793,632.143616 3012.365723,650.536072 2994.136963,668.943359 
	C2990.653564,672.461060 2988.009277,676.821167 2984.465576,680.265747 
	C2973.266846,691.152588 2961.904541,701.875488 2950.429443,712.470947 
	C2946.908691,715.721802 2945.488770,719.400635 2945.392578,723.717896 
	C2926.507324,705.589905 2908.220215,687.753784 2889.932861,669.917603 
	C2888.979248,668.796143 2888.025879,667.674622 2886.180176,665.759766 
	C2880.454590,661.786682 2878.989258,654.504333 2871.947998,654.013184 
	C2869.929443,652.310852 2867.773193,650.746399 2865.912109,648.886353 
	C2788.561523,571.573669 2711.235840,494.235596 2633.916992,416.891022 
	C2632.745850,415.719421 2631.693848,414.428864 2630.302734,412.592560 
z"/>
<path fill="#F3F4F6" opacity="1.000000" stroke="none" 
	d="
M2839.733643,1532.622925 
	C2846.787109,1527.744263 2852.366455,1522.464478 2857.551514,1516.161987 
	C2864.832275,1507.312378 2873.970703,1500.006836 2882.162354,1491.887085 
	C2890.332764,1483.788208 2898.335449,1475.519409 2906.370850,1467.285156 
	C2910.546143,1463.006470 2914.565674,1458.574707 2918.774658,1454.330200 
	C2928.544922,1444.476807 2938.272949,1434.576904 2948.229980,1424.914551 
	C2960.286865,1413.214111 2972.567871,1401.744873 2984.738770,1390.161743 
	C2986.907471,1388.097656 2989.044434,1385.998291 2991.138428,1383.858765 
	C2994.177002,1380.754272 2997.172852,1378.193237 3001.980713,1377.504883 
	C3007.530762,1376.710205 3011.570801,1372.775146 3013.220947,1367.274292 
	C3015.900635,1358.341064 3023.839111,1353.949097 3029.589111,1347.684937 
	C3031.719971,1345.363525 3034.426758,1345.782227 3036.706787,1347.853271 
	C3038.675537,1349.641357 3040.539307,1351.546509 3042.421143,1353.428223 
	C3074.187744,1385.187744 3105.973877,1416.927979 3137.684570,1448.743164 
	C3141.958984,1453.031372 3146.029541,1457.377319 3153.890625,1457.997192 
	C3149.441650,1462.920532 3144.992432,1467.843872 3140.276611,1473.386230 
	C3134.455078,1479.143921 3128.900146,1484.282837 3122.769531,1489.717896 
	C3119.686035,1491.455200 3116.757080,1492.458862 3114.735352,1494.404907 
	C3091.244385,1517.020508 3067.801758,1539.688232 3044.519531,1562.518555 
	C3002.918457,1603.311646 2961.472412,1644.262939 2919.880127,1685.064941 
	C2908.262451,1696.462036 2896.357910,1707.566895 2883.585693,1719.332764 
	C2878.346924,1716.831909 2873.666504,1714.262451 2869.953369,1710.687744 
	C2859.993652,1701.098267 2850.478760,1691.048340 2840.726074,1681.241577 
	C2834.943115,1675.426392 2828.923340,1669.843018 2823.226074,1663.946899 
	C2814.115479,1654.518921 2805.185303,1644.916504 2796.172119,1635.394531 
	C2795.948242,1635.157959 2795.614014,1635.027466 2795.383301,1634.795654 
	C2790.576904,1629.963013 2785.529541,1625.340576 2781.046631,1620.223755 
	C2776.418701,1614.941650 2771.307861,1611.295532 2763.948242,1611.976562 
	C2766.159668,1608.799072 2767.968018,1605.224854 2770.645508,1602.506714 
	C2793.486084,1579.322021 2816.484375,1556.292847 2839.733643,1532.622925 
z"/>
<path fill="#F7F8F9" opacity="1.000000" stroke="none" 
	d="
M2763.354980,1612.270996 
	C2771.307861,1611.295532 2776.418701,1614.941650 2781.046631,1620.223755 
	C2785.529541,1625.340576 2790.576904,1629.963013 2795.383301,1634.795654 
	C2795.614014,1635.027466 2795.948242,1635.157959 2796.172119,1635.394531 
	C2805.185303,1644.916504 2814.115479,1654.518921 2823.226074,1663.946899 
	C2828.923340,1669.843018 2834.943115,1675.426392 2840.726074,1681.241577 
	C2850.478760,1691.048340 2859.993652,1701.098267 2869.953369,1710.687744 
	C2873.666504,1714.262451 2878.346924,1716.831909 2883.293213,1719.929810 
	C2870.234131,1733.434326 2856.314209,1746.715698 2842.759521,1760.359619 
	C2834.347900,1768.826660 2826.758057,1778.110596 2818.338623,1786.569336 
	C2776.136475,1828.968628 2733.653076,1871.088989 2691.632568,1913.666748 
	C2685.942383,1919.432129 2678.285156,1920.814331 2672.211426,1925.392212 
	C2671.128662,1926.208252 2667.623535,1925.090454 2666.109619,1923.823242 
	C2660.769287,1919.352905 2655.712646,1914.527466 2650.726318,1909.654907 
	C2643.207031,1902.307495 2635.762939,1894.879395 2628.431152,1887.345215 
	C2624.043213,1882.835693 2619.994629,1877.997559 2615.668213,1873.425659 
	C2613.183105,1870.799561 2610.426270,1868.432129 2607.831543,1865.907349 
	C2605.237305,1863.382935 2602.637939,1860.859497 2600.150635,1858.231567 
	C2599.022217,1857.039307 2598.333008,1855.411621 2597.149170,1854.294434 
	C2587.567871,1845.250366 2577.639893,1836.552612 2568.401611,1827.174072 
	C2563.764648,1822.466675 2559.353516,1820.812378 2552.673828,1823.891968 
	C2553.919922,1821.018921 2555.547852,1817.716309 2557.990967,1815.207642 
	C2568.891602,1804.014038 2579.975098,1792.996338 2591.082520,1782.006348 
	C2647.296631,1726.387329 2703.538086,1670.795776 2759.778076,1615.202759 
	C2760.720459,1614.271118 2761.764648,1613.442139 2763.354980,1612.270996 
z"/>
<path fill="#FCFCFD" opacity="1.000000" stroke="none" 
	d="
M2889.927734,670.659424 
	C2908.220215,687.753784 2926.507324,705.589905 2945.659668,724.275146 
	C2948.346680,726.752686 2950.168457,728.381226 2952.265869,730.584717 
	C2955.027588,733.439758 2957.513916,735.719971 2960.277832,738.573730 
	C2963.037109,741.432373 2965.518555,743.717407 2968.280273,746.588135 
	C2971.706787,750.116699 2974.853516,753.059570 2978.294434,756.598511 
	C2994.553223,772.632996 3010.664795,787.922913 3026.448242,803.544067 
	C3051.242920,828.083557 3076.075195,852.595886 3100.330078,877.662781 
	C3107.910645,885.497253 3115.137451,893.565308 3123.955566,900.036560 
	C3125.938721,902.986816 3127.515869,906.337463 3129.969482,908.823120 
	C3148.226318,927.320251 3166.664307,945.638733 3185.023682,964.034973 
	C3187.343018,966.359131 3189.534912,968.810669 3192.385254,971.840088 
	C3189.925293,974.577881 3187.922119,977.127563 3185.596680,979.338501 
	C3176.233643,988.240173 3166.771240,997.037292 3156.652100,1005.933838 
	C3157.942627,1003.047058 3159.527100,999.703613 3161.983887,997.224731 
	C3169.939697,989.197937 3178.215088,981.487793 3186.822510,973.217712 
	C3184.460205,970.233582 3183.063477,968.061768 3181.280029,966.276794 
	C3145.492188,930.456604 3109.720215,894.620300 3073.795654,858.937439 
	C3064.370850,849.575867 3054.278564,840.887512 3044.813477,831.564453 
	C3039.149902,825.985779 3034.360596,819.524414 3028.746826,813.889587 
	C2984.605469,769.581482 2940.329590,725.407654 2896.221680,681.066223 
	C2893.566650,678.397217 2891.997314,674.647827 2889.927734,670.659424 
z"/>
<path fill="#F7F8F9" opacity="1.000000" stroke="none" 
	d="
M2872.033203,654.709106 
	C2878.989258,654.504333 2880.454590,661.786682 2885.673828,665.516663 
	C2878.556641,666.247253 2875.395020,660.750732 2872.033203,654.709106 
z"/>
<path fill="#FCFCFD" opacity="1.000000" stroke="none" 
	d="
M3155.546143,1006.169067 
	C3155.627930,1006.502747 3155.250732,1007.043335 3154.417480,1007.795532 
	C3154.336670,1007.463379 3154.711670,1006.919678 3155.546143,1006.169067 
z"/>
<path fill="#FCFCFD" opacity="1.000000" stroke="none" 
	d="
M3153.547363,1008.169434 
	C3153.628418,1008.501892 3153.250244,1009.042480 3152.416504,1009.795898 
	C3152.336670,1009.465088 3152.712646,1008.921326 3153.547363,1008.169434 
z"/>
<path fill="#FCFCFD" opacity="1.000000" stroke="none" 
	d="
M3151.548828,1010.169617 
	C3151.628418,1010.500793 3151.249512,1011.041382 3150.415039,1011.796021 
	C3150.336914,1011.466431 3150.713623,1010.922729 3151.548828,1010.169617 
z"/>
<path fill="#FCFCFD" opacity="1.000000" stroke="none" 
	d="
M3149.551270,1012.170166 
	C3149.629639,1012.500305 3149.249756,1013.040833 3148.414795,1013.796265 
	C3148.337402,1013.467651 3148.715088,1012.924072 3149.551270,1012.170166 
z"/>
<path fill="#FCFCFD" opacity="1.000000" stroke="none" 
	d="
M3147.553223,1014.170654 
	C3147.630371,1014.499390 3147.249268,1015.039734 3146.413330,1015.796387 
	C3146.337402,1015.469116 3146.716064,1014.925659 3147.553223,1014.170654 
z"/>
<path fill="#FCFCFD" opacity="1.000000" stroke="none" 
	d="
M3145.555664,1016.171753 
	C3145.631348,1016.498657 3145.249268,1017.038635 3144.412598,1017.796631 
	C3144.338379,1017.471375 3144.718262,1016.928162 3145.555664,1016.171753 
z"/>
<path fill="#FCFCFD" opacity="1.000000" stroke="none" 
	d="
M3143.506592,1017.959229 
	C3143.460449,1018.195618 3142.905518,1018.432678 3142.165527,1018.330078 
	C3142.319336,1017.980347 3142.658447,1017.970154 3143.506592,1017.959229 
z"/>
<path fill="#F3F4F6" opacity="1.000000" stroke="none" 
	d="
M2836.274902,182.573013 
	C2836.549316,177.881958 2834.129150,175.283646 2831.597412,172.476288 
	C2826.793701,167.149048 2826.742920,166.234268 2832.086426,161.034103 
	C2838.253662,155.032166 2845.042236,149.670593 2851.235352,143.693451 
	C2868.645752,126.890221 2885.409180,109.483635 2900.622803,90.609489 
	C2903.467773,87.080048 2908.321289,85.159264 2911.126465,81.609871 
	C2920.462646,69.796837 2933.286133,61.813408 2943.614258,51.190331 
	C2954.449951,40.044884 2964.496338,28.132145 2975.504395,16.247221 
	C2978.822266,17.717297 2981.924072,19.092867 2984.166016,21.330379 
	C3059.834961,96.862198 3135.479004,172.419479 3210.969727,248.129410 
	C3224.807861,262.007385 3237.974854,276.554260 3251.210938,291.832581 
	C3250.484131,298.588257 3246.805176,302.273590 3242.998047,306.071472 
	C3199.012207,349.949402 3155.091553,393.892487 3111.189209,437.853851 
	C3108.626953,440.419464 3106.370605,443.290436 3103.971924,446.019348 
	C3095.999512,439.031464 3087.615479,432.456696 3080.119873,424.990295 
	C3020.421875,365.525665 2960.948242,305.836212 2901.275146,246.346939 
	C2885.275879,230.397049 2868.826416,214.899216 2852.280762,197.843170 
	C2851.952881,191.091660 2848.587158,189.794662 2844.000000,189.998184 
	C2841.516602,187.714951 2839.033447,185.431702 2836.274902,182.573013 
z"/>
<path fill="#EAECF0" opacity="1.000000" stroke="none" 
	d="
M3104.051758,446.705811 
	C3106.370605,443.290436 3108.626953,440.419464 3111.189209,437.853851 
	C3155.091553,393.892487 3199.012207,349.949402 3242.998047,306.071472 
	C3246.805176,302.273590 3250.484131,298.588257 3251.520020,292.423157 
	C3255.488281,294.429596 3259.340088,296.456940 3262.262939,299.404938 
	C3318.525635,356.152557 3374.676758,413.010925 3430.866211,469.831024 
	C3433.438721,472.432556 3436.156738,474.890472 3439.403564,477.709534 
	C3443.104004,481.440704 3446.073242,485.011810 3449.335449,488.291626 
	C3466.921631,505.973907 3484.602783,523.561707 3502.204102,541.228943 
	C3510.265625,549.320740 3510.250244,550.727051 3502.005615,558.978210 
	C3457.654785,603.364014 3413.244385,647.690674 3368.985840,692.168213 
	C3366.103760,695.064514 3364.317627,699.051453 3362.015625,703.260071 
	C3359.037598,701.355164 3355.918945,698.867554 3353.114502,696.065857 
	C3293.757568,636.767700 3234.475098,577.394836 3175.063965,518.151123 
	C3166.611572,509.722931 3157.326660,502.129944 3148.869873,493.705902 
	C3141.357910,486.222778 3134.679443,477.906281 3127.221436,470.364594 
	C3121.640137,464.720490 3115.300781,459.833435 3109.513672,454.381165 
	C3107.400635,452.390259 3105.907715,449.741089 3104.051758,446.705811 
z"/>
<path fill="#F7F8F9" opacity="1.000000" stroke="none" 
	d="
M3843.398193,318.281219 
	C3844.552979,322.101929 3842.312012,324.830872 3839.577393,327.474243 
	C3834.321289,332.555420 3829.191406,337.768097 3824.054199,342.970734 
	C3822.191406,344.857239 3820.264648,346.728851 3818.698242,348.851624 
	C3812.561279,357.167755 3812.971436,359.059418 3820.981201,365.966034 
	C3831.749756,375.251709 3842.711182,384.357422 3852.932373,394.221436 
	C3862.622070,403.572449 3871.240723,414.024506 3880.748779,423.575836 
	C3888.614990,431.477844 3897.197510,438.661896 3905.260742,446.375061 
	C3910.720703,451.598175 3916.218506,453.505951 3923.344238,448.098022 
	C3920.333496,457.424835 3911.709473,462.465149 3905.067383,469.250214 
	C3902.072754,472.309387 3898.362305,474.663513 3895.331543,477.692322 
	C3822.376221,550.590759 3749.478760,623.546936 3676.516357,696.437988 
	C3673.750488,699.201172 3670.438232,701.417358 3666.690430,703.960754 
	C3663.606934,701.294434 3661.361084,698.408936 3658.798096,695.839722 
	C3629.179688,666.150940 3599.510498,636.512634 3569.864502,606.851196 
	C3567.308838,604.294312 3564.823730,601.666748 3563.332275,600.129517 
	C3567.035156,595.543213 3569.990479,591.120667 3573.677246,587.428223 
	C3660.453125,500.518127 3747.305908,413.684875 3834.155762,326.848694 
	C3836.976074,324.028748 3839.915039,321.326996 3843.398193,318.281219 
z"/>
<path fill="#F7F8F9" opacity="1.000000" stroke="none" 
	d="
M3928.553223,445.574402 
	C3928.428223,437.916748 3933.442871,434.088531 3941.108887,431.975311 
	C3937.603271,436.407074 3933.380371,440.864532 3928.553223,445.574402 
z"/>
<path fill="#EAECF0" opacity="1.000000" stroke="none" 
	d="
M3588.593262,1525.753052 
	C3589.618896,1517.553955 3582.726562,1513.433472 3578.281250,1508.576538 
	C3568.494629,1497.883911 3557.918945,1487.911133 3547.598877,1477.711914 
	C3545.960205,1476.092407 3544.075928,1473.763672 3542.133057,1473.579590 
	C3534.451172,1472.852417 3531.479492,1466.511353 3526.953369,1461.971191 
	C3513.316162,1448.290771 3499.746094,1434.540649 3485.939941,1421.032227 
	C3479.307617,1414.543091 3471.892822,1408.842773 3465.377441,1402.246826 
	C3452.869385,1389.584351 3440.884277,1376.406128 3428.410645,1363.708618 
	C3422.613525,1357.807739 3415.019531,1353.358032 3410.325684,1346.765381 
	C3404.239990,1338.217651 3396.470459,1331.604370 3389.229736,1324.388184 
	C3379.623779,1314.814209 3369.449951,1305.811035 3359.556641,1296.523438 
	C3357.129883,1294.245361 3354.701172,1291.940674 3352.526611,1289.428589 
	C3347.025391,1283.072144 3347.031006,1279.142700 3352.296143,1272.765137 
	C3355.247070,1269.190918 3358.211914,1265.628296 3361.180420,1262.068604 
	C3365.748779,1256.590088 3372.233398,1256.544434 3376.086182,1262.654419 
	C3382.415283,1272.690918 3390.836670,1280.481567 3400.217773,1287.468506 
	C3402.335938,1289.046143 3404.151611,1291.060913 3405.974609,1292.998291 
	C3415.499512,1303.120117 3424.854248,1313.405640 3434.535889,1323.373779 
	C3438.972900,1327.942017 3442.766602,1334.021729 3450.491699,1333.427124 
	C3453.054932,1329.656860 3451.846436,1326.700928 3449.184082,1324.270142 
	C3436.463623,1312.655029 3426.235840,1298.497314 3412.291748,1288.137573 
	C3411.231201,1287.349487 3409.738037,1286.793701 3409.174805,1285.740234 
	C3402.625732,1273.495117 3390.471191,1267.354370 3380.335693,1259.022095 
	C3380.078857,1258.810913 3379.776123,1258.643066 3379.558838,1258.398315 
	C3376.374756,1254.809814 3370.861816,1252.420776 3372.369141,1246.269775 
	C3373.885254,1240.083618 3379.465332,1240.147095 3384.274658,1239.470337 
	C3385.744385,1235.021484 3386.443359,1230.316895 3388.755615,1226.621582 
	C3391.166992,1222.767090 3395.287842,1220.022461 3398.376465,1216.539795 
	C3401.447754,1213.076050 3404.179199,1209.309448 3407.032227,1205.654175 
	C3408.863770,1203.307739 3410.402100,1200.679565 3412.485840,1198.590820 
	C3454.765625,1156.214233 3497.089355,1113.881226 3539.470947,1071.606567 
	C3542.242920,1068.841797 3545.553711,1066.617065 3549.302246,1064.075439 
	C3557.876465,1071.558716 3565.904297,1078.966187 3573.627197,1086.678589 
	C3648.225830,1161.175293 3722.773193,1235.723511 3797.342285,1310.249756 
	C3797.809570,1310.716675 3798.378906,1311.081909 3799.501953,1311.819580 
	C3798.549561,1315.274658 3797.611084,1318.977051 3795.329590,1321.430054 
	C3787.698486,1329.634399 3779.657471,1337.463867 3771.646973,1345.307739 
	C3743.671387,1372.700928 3715.567871,1399.963623 3687.658203,1427.423584 
	C3665.403076,1449.320435 3643.359619,1471.432373 3620.326660,1493.137451 
	C3614.039062,1487.108032 3608.825195,1481.206299 3603.187012,1475.742188 
	C3599.907471,1472.563477 3595.612793,1470.424438 3592.370850,1467.215576 
	C3587.453613,1462.348755 3583.189453,1456.824829 3578.322998,1451.901123 
	C3577.341797,1450.908569 3574.912598,1451.347778 3573.150879,1451.126953 
	C3573.360107,1452.887207 3572.968262,1455.134277 3573.912354,1456.299072 
	C3575.524414,1458.288330 3578.249756,1459.340454 3580.024414,1461.238037 
	C3588.504395,1470.304443 3596.901855,1479.452271 3605.119385,1488.755737 
	C3606.509277,1490.329102 3606.878418,1492.804199 3607.750000,1494.938110 
	C3603.180664,1500.324219 3599.048340,1505.472046 3594.606689,1510.337402 
	C3591.449219,1513.795898 3592.159912,1516.097168 3596.037109,1518.028931 
	C3593.747070,1520.510742 3591.457031,1522.992676 3588.593262,1525.753052 
M3563.949707,1446.893311 
	C3565.186035,1446.329102 3567.543701,1445.436890 3567.489014,1445.250122 
	C3566.759766,1442.756226 3566.300293,1439.771973 3564.614258,1438.034790 
	C3551.625732,1424.650757 3538.410645,1411.485474 3525.195068,1398.323486 
	C3522.629883,1395.768555 3519.725586,1395.058228 3516.266846,1397.946411 
	C3518.206299,1400.763184 3521.420410,1403.292480 3521.235596,1405.542114 
	C3520.522949,1414.204956 3528.232178,1417.019653 3532.056396,1422.354736 
	C3534.796631,1426.176880 3539.161621,1428.917725 3543.050293,1431.806274 
	C3546.135742,1434.097778 3549.757812,1435.665649 3552.850342,1437.948975 
	C3556.300049,1440.496094 3559.420654,1443.488403 3563.949707,1446.893311 
M3445.168945,1300.241943 
	C3456.794434,1319.616577 3482.591797,1342.559570 3494.955811,1342.791992 
	C3491.242920,1338.870117 3488.590332,1335.770386 3485.622070,1333.010254 
	C3482.058350,1329.695801 3478.038818,1326.863525 3474.545898,1323.482056 
	C3465.803711,1315.018188 3457.286377,1306.322388 3448.581543,1297.819214 
	C3446.960205,1296.235107 3445.067871,1295.698730 3445.168945,1300.241943 
M3431.628662,1283.281006 
	C3426.028809,1276.299316 3419.642578,1270.370483 3410.712402,1267.712158 
	C3416.938721,1275.966553 3423.802979,1283.460938 3431.677002,1289.920166 
	C3432.253906,1289.532349 3432.830566,1289.144653 3433.407227,1288.756836 
	C3433.005859,1287.342651 3432.604248,1285.928345 3431.628662,1283.281006 
M3504.802734,1354.183594 
	C3503.503662,1353.986816 3502.204834,1353.790039 3500.906006,1353.593018 
	C3501.350586,1354.665283 3501.795166,1355.737549 3502.239502,1356.809692 
	C3503.273193,1356.285034 3504.307129,1355.760376 3504.802734,1354.183594 
M3394.802734,1248.183472 
	C3393.503662,1247.986694 3392.204834,1247.789917 3390.905518,1247.593140 
	C3391.350098,1248.665405 3391.794678,1249.737671 3392.239502,1250.809937 
	C3393.273438,1250.285156 3394.307373,1249.760498 3394.802734,1248.183472 
z"/>
<path fill="#EAECF0" opacity="1.000000" stroke="none" 
	d="
M3124.384766,899.503723 
	C3115.137451,893.565308 3107.910645,885.497253 3100.330078,877.662781 
	C3076.075195,852.595886 3051.242920,828.083557 3026.448242,803.544067 
	C3010.664795,787.922913 2994.553223,772.632996 2978.280762,755.831177 
	C2975.825928,746.565186 2975.825928,746.565186 2968.000000,746.002441 
	C2965.518555,743.717407 2963.037109,741.432373 2960.273926,737.778809 
	C2960.678955,730.083496 2956.598633,729.716553 2951.990234,730.009766 
	C2950.168457,728.381226 2948.346680,726.752686 2946.257568,724.567017 
	C2945.488770,719.400635 2946.908691,715.721802 2950.429443,712.470947 
	C2961.904541,701.875488 2973.266846,691.152588 2984.465576,680.265747 
	C2988.009277,676.821167 2990.653564,672.461060 2994.136963,668.943359 
	C3012.365723,650.536072 3030.612793,632.143616 3049.105713,614.003357 
	C3057.102783,606.158752 3065.714600,598.940247 3071.916016,588.708618 
	C3075.231689,590.273132 3078.904297,592.102173 3081.668945,594.846130 
	C3110.200928,623.164917 3138.711182,651.508118 3166.971436,680.097778 
	C3187.775879,701.145081 3208.149902,722.617371 3228.819336,743.799133 
	C3236.654785,751.828430 3244.780762,759.573914 3253.371582,767.759155 
	C3254.329102,774.377930 3250.624512,778.566895 3246.465332,782.543396 
	C3230.904541,797.420654 3215.075439,812.030945 3199.879395,827.272278 
	C3181.401367,845.805359 3163.694092,865.108093 3145.154785,883.577332 
	C3139.186035,889.523315 3131.638916,893.884644 3124.384766,899.503723 
M3006.940186,713.815552 
	C2999.074463,722.832825 2989.359619,730.218567 2982.855957,740.639587 
	C2984.828613,740.802063 2986.408691,740.450195 2987.379150,739.485291 
	C3008.097656,718.879639 3028.767578,698.225037 3049.350342,677.484192 
	C3050.350342,676.476379 3050.468750,674.593384 3051.695312,671.173279 
	C3048.741211,673.070679 3047.546875,673.607849 3046.641357,674.453918 
	C3035.269531,685.079285 3023.903076,695.710693 3012.635742,706.445801 
	C3010.745850,708.246399 3009.331787,710.546143 3006.940186,713.815552 
M3090.067871,630.865051 
	C3085.872070,635.084900 3081.510498,639.155396 3077.527588,643.567627 
	C3073.785645,647.713318 3068.428955,650.690674 3066.338867,657.320496 
	C3074.271973,653.844360 3093.770264,634.369141 3097.022217,627.203857 
	C3093.617432,624.834534 3092.450684,627.682983 3090.067871,630.865051 
M3057.293701,667.749451 
	C3061.181641,666.801086 3062.506348,664.646118 3060.333496,659.513550 
	C3057.827881,662.335571 3053.198975,662.402283 3057.293701,667.749451 
z"/>
<path fill="#FCFCFD" opacity="1.000000" stroke="none" 
	d="
M4033.781738,1383.622070 
	C4033.405029,1383.733521 4032.816406,1383.378540 4032.070801,1382.516113 
	C4032.465576,1382.390991 4033.017822,1382.773315 4033.781738,1383.622070 
z"/>
<path fill="#FCFCFD" opacity="1.000000" stroke="none" 
	d="
M4036.244629,1387.954102 
	C4035.862549,1387.807373 4035.831787,1387.447266 4035.849121,1386.546875 
	C4036.276855,1386.357666 4036.684570,1386.686157 4037.008545,1387.082886 
	C4037.060791,1387.146973 4036.742676,1387.513794 4036.244629,1387.954102 
z"/>
<path fill="#FCFCFD" opacity="1.000000" stroke="none" 
	d="
M4035.781494,1385.623535 
	C4035.406494,1385.733398 4034.817871,1385.377319 4034.070801,1384.513794 
	C4034.464111,1384.390015 4035.016113,1384.773682 4035.781494,1385.623535 
z"/>
<path fill="#FCFCFD" opacity="1.000000" stroke="none" 
	d="
M4031.782715,1381.619385 
	C4031.402344,1381.733765 4030.812988,1381.380737 4030.069336,1380.519043 
	C4030.468018,1380.390991 4031.020752,1380.771362 4031.782715,1381.619385 
z"/>
<path fill="#FCFCFD" opacity="1.000000" stroke="none" 
	d="
M4029.782471,1379.617065 
	C4029.400146,1379.733398 4028.810547,1379.381592 4028.068359,1378.520508 
	C4028.469238,1378.390625 4029.022217,1378.769775 4029.782471,1379.617065 
z"/>
<path fill="#FCFCFD" opacity="1.000000" stroke="none" 
	d="
M4027.782959,1377.616943 
	C4027.393555,1377.737549 4026.798828,1377.390503 4026.062500,1376.530029 
	C4026.473145,1376.394165 4027.025146,1376.771729 4027.782959,1377.616943 
z"/>
<path fill="#FCFCFD" opacity="1.000000" stroke="none" 
	d="
M4025.779541,1375.612549 
	C4025.388672,1375.735718 4024.793457,1375.391846 4024.059570,1374.532471 
	C4024.472168,1374.393066 4025.023682,1374.769287 4025.779541,1375.612549 
z"/>
<path fill="#FCFCFD" opacity="1.000000" stroke="none" 
	d="
M4023.779541,1373.612305 
	C4023.388916,1373.735474 4022.793945,1373.391479 4022.059814,1372.532104 
	C4022.472168,1372.392944 4023.023682,1372.769165 4023.779541,1373.612305 
z"/>
<path fill="#E4E8EB" opacity="1.000000" stroke="none" 
	d="
M3596.629883,1517.730103 
	C3592.159912,1516.097168 3591.449219,1513.795898 3594.606689,1510.337402 
	C3599.048340,1505.472046 3603.180664,1500.324219 3607.750000,1494.938110 
	C3606.878418,1492.804199 3606.509277,1490.329102 3605.119385,1488.755737 
	C3596.901855,1479.452271 3588.504395,1470.304443 3580.024414,1461.238037 
	C3578.249756,1459.340454 3575.524414,1458.288330 3573.912354,1456.299072 
	C3572.968262,1455.134277 3573.360107,1452.887207 3573.150879,1451.126953 
	C3574.912598,1451.347778 3577.341797,1450.908569 3578.322998,1451.901123 
	C3583.189453,1456.824829 3587.453613,1462.348755 3592.370850,1467.215576 
	C3595.612793,1470.424438 3599.907471,1472.563477 3603.187012,1475.742188 
	C3608.825195,1481.206299 3614.039062,1487.108032 3619.730225,1493.433838 
	C3612.427246,1501.838013 3604.824951,1509.634644 3596.629883,1517.730103 
z"/>
<path fill="#F7F8F9" opacity="1.000000" stroke="none" 
	d="
M2844.273682,190.574417 
	C2848.587158,189.794662 2851.952881,191.091660 2851.989258,197.245422 
	C2849.515869,195.715820 2847.031494,193.433243 2844.273682,190.574417 
z"/>
<path fill="#F3F4F6" opacity="1.000000" stroke="none" 
	d="
M2968.280273,746.588135 
	C2975.825928,746.565186 2975.825928,746.565186 2977.986328,755.235168 
	C2974.853516,753.059570 2971.706787,750.116699 2968.280273,746.588135 
z"/>
<path fill="#F3F4F6" opacity="1.000000" stroke="none" 
	d="
M2952.265869,730.584717 
	C2956.598633,729.716553 2960.678955,730.083496 2959.996338,737.205200 
	C2957.513916,735.719971 2955.027588,733.439758 2952.265869,730.584717 
z"/>
<path fill="#E4E8EB" opacity="1.000000" stroke="none" 
	d="
M3563.317139,1446.590210 
	C3559.420654,1443.488403 3556.300049,1440.496094 3552.850342,1437.948975 
	C3549.757812,1435.665649 3546.135742,1434.097778 3543.050293,1431.806274 
	C3539.161621,1428.917725 3534.796631,1426.176880 3532.056396,1422.354736 
	C3528.232178,1417.019653 3520.522949,1414.204956 3521.235596,1405.542114 
	C3521.420410,1403.292480 3518.206299,1400.763184 3516.266846,1397.946411 
	C3519.725586,1395.058228 3522.629883,1395.768555 3525.195068,1398.323486 
	C3538.410645,1411.485474 3551.625732,1424.650757 3564.614258,1438.034790 
	C3566.300293,1439.771973 3566.759766,1442.756226 3567.489014,1445.250122 
	C3567.543701,1445.436890 3565.186035,1446.329102 3563.317139,1446.590210 
z"/>
<path fill="#E4E8EB" opacity="1.000000" stroke="none" 
	d="
M3444.916504,1299.632812 
	C3445.067871,1295.698730 3446.960205,1296.235107 3448.581543,1297.819214 
	C3457.286377,1306.322388 3465.803711,1315.018188 3474.545898,1323.482056 
	C3478.038818,1326.863525 3482.058350,1329.695801 3485.622070,1333.010254 
	C3488.590332,1335.770386 3491.242920,1338.870117 3494.955811,1342.791992 
	C3482.591797,1342.559570 3456.794434,1319.616577 3444.916504,1299.632812 
z"/>
<path fill="#E4E8EB" opacity="1.000000" stroke="none" 
	d="
M3431.915771,1283.897583 
	C3432.604248,1285.928345 3433.005859,1287.342651 3433.407227,1288.756836 
	C3432.830566,1289.144653 3432.253906,1289.532349 3431.677002,1289.920166 
	C3423.802979,1283.460938 3416.938721,1275.966553 3410.712402,1267.712158 
	C3419.642578,1270.370483 3426.028809,1276.299316 3431.915771,1283.897583 
z"/>
<path fill="#E4E8EB" opacity="1.000000" stroke="none" 
	d="
M3505.071777,1354.709595 
	C3504.307129,1355.760376 3503.273193,1356.285034 3502.239746,1356.809692 
	C3501.795166,1355.737549 3501.350586,1354.665283 3500.905762,1353.593140 
	C3502.204834,1353.790039 3503.503662,1353.986816 3505.071777,1354.709595 
z"/>
<path fill="#E4E8EB" opacity="1.000000" stroke="none" 
	d="
M3395.071777,1248.709717 
	C3394.307373,1249.760498 3393.273438,1250.285156 3392.239258,1250.809814 
	C3391.794678,1249.737671 3391.350098,1248.665405 3390.905762,1247.593140 
	C3392.204834,1247.789917 3393.503662,1247.986694 3395.071777,1248.709717 
z"/>
<path fill="#F3F4F6" opacity="1.000000" stroke="none" 
	d="
M3007.318848,713.215332 
	C3009.331787,710.546143 3010.745850,708.246399 3012.635742,706.445801 
	C3023.903076,695.710693 3035.269531,685.079285 3046.641357,674.453918 
	C3047.546875,673.607849 3048.741211,673.070679 3051.695312,671.173279 
	C3050.468750,674.593384 3050.350342,676.476379 3049.350342,677.484192 
	C3028.767578,698.225037 3008.097656,718.879639 2987.379150,739.485291 
	C2986.408691,740.450195 2984.828613,740.802063 2982.855957,740.639587 
	C2989.359619,730.218567 2999.074463,722.832825 3007.318848,713.215332 
z"/>
<path fill="#F3F4F6" opacity="1.000000" stroke="none" 
	d="
M3090.520020,630.326416 
	C3092.450684,627.682983 3093.617432,624.834534 3097.022217,627.203857 
	C3093.770264,634.369141 3074.271973,653.844360 3066.338867,657.320496 
	C3068.428955,650.690674 3073.785645,647.713318 3077.527588,643.567627 
	C3081.510498,639.155396 3085.872070,635.084900 3090.520020,630.326416 
z"/>
<path fill="#F3F4F6" opacity="1.000000" stroke="none" 
	d="
M3056.621094,667.648315 
	C3053.198975,662.402283 3057.827881,662.335571 3060.333496,659.513550 
	C3062.506348,664.646118 3061.181641,666.801086 3056.621094,667.648315 
z"/>
</svg>