<svg width="17" height="17" viewBox="0 0 17 17" fill="none" xmlns="http://www.w3.org/2000/svg">
<g clip-path="url(#clip0_5670_998)">
<path d="M-11.75 8.55029C-11.75 11.1767 -11.2327 13.7775 -10.2276 16.204C-9.2225 18.6305 -7.74931 20.8353 -5.89213 22.6924C-4.03496 24.5496 -1.83018 26.0228 0.596332 27.0279C3.02284 28.033 5.62356 28.5503 8.25 28.5503C10.8764 28.5503 13.4772 28.033 15.9037 27.0279C18.3302 26.0228 20.535 24.5496 22.3921 22.6924C24.2493 20.8353 25.7225 18.6305 26.7276 16.204C27.7327 13.7775 28.25 11.1767 28.25 8.55029C28.25 5.92386 27.7327 3.32314 26.7276 0.896626C25.7225 -1.52989 24.2493 -3.73467 22.3921 -5.59184C20.535 -7.44901 18.3302 -8.9222 15.9037 -9.9273C13.4772 -10.9324 10.8764 -11.4497 8.25 -11.4497C5.62356 -11.4497 3.02284 -10.9324 0.596332 -9.9273C-1.83018 -8.9222 -4.03496 -7.44901 -5.89213 -5.59184C-7.74931 -3.73467 -9.2225 -1.52989 -10.2276 0.896626C-11.2327 3.32314 -11.75 5.92386 -11.75 8.55029Z" fill="#FFF1DC"/>
<path d="M13.814 6.94885C13.7126 6.53 13.3285 5.83358 12.9306 5.26052C12.7555 5.00881 12.3675 5.07049 12.2759 5.36399C12.1327 5.81766 11.9048 6.33898 11.5089 6.80758C11.4363 6.89314 11.295 6.84936 11.288 6.73694C11.2124 5.5759 10.6622 2.57431 6.78214 2.15247C6.51452 2.12362 6.30559 2.38329 6.39314 2.63798C6.68564 3.49359 6.92043 5.13814 5.58031 6.14597C5.52559 6.18676 5.44998 6.17283 5.4072 6.1201C4.9605 5.55103 4.40336 5.20182 3.64823 5.06054C3.38458 5.01179 3.16272 5.25156 3.22341 5.51322C3.34081 6.01763 3.38956 6.87821 2.90903 8.0502C2.10217 10.0151 1.17194 14.7608 8.57494 14.7608C15.9779 14.7608 13.9563 7.53683 13.814 6.94885ZM5.17141 12.2516C5.11495 12.3046 5.04861 12.3459 4.97617 12.3731C4.90373 12.4004 4.82662 12.4131 4.74927 12.4105C4.67192 12.4079 4.59583 12.3901 4.52538 12.358C4.45492 12.326 4.39148 12.2804 4.33869 12.2238C3.35275 11.1692 3.78155 9.20228 3.83328 8.98142C3.9079 8.66504 4.22527 8.46805 4.54165 8.54366C4.61685 8.56134 4.68784 8.59366 4.75054 8.63878C4.81325 8.68391 4.86645 8.74094 4.90711 8.80663C4.94776 8.87233 4.97507 8.94539 4.98747 9.02164C4.99988 9.09789 4.99713 9.17584 4.9794 9.25103C4.88588 9.65297 4.7257 10.9125 5.19827 11.4189C5.42113 11.6567 5.40919 12.0298 5.17141 12.2516Z" fill="#FC7032"/>
<path d="M13.6887 6.58671C13.5186 6.18776 13.2281 5.68932 12.9306 5.26052C12.7555 5.00881 12.3675 5.07049 12.2759 5.36399C12.1327 5.81766 11.9048 6.33898 11.5089 6.80758C11.4363 6.89314 11.295 6.84936 11.288 6.73694C11.2124 5.5759 10.6622 2.57431 6.78214 2.15247C6.51452 2.12362 6.30559 2.38329 6.39314 2.63798C6.68564 3.49359 6.92043 5.13814 5.58031 6.14597C5.52559 6.18676 5.44998 6.17283 5.4072 6.1201C4.96049 5.55103 4.40335 5.20182 3.64823 5.06054C3.38458 5.01179 3.16272 5.25156 3.22341 5.51322C3.34081 6.01763 3.38956 6.87821 2.90902 8.0502C2.20464 9.76539 1.40773 13.5977 6.13745 14.5459C10.2533 14.1389 13.4947 10.7613 13.6887 6.58671ZM5.17141 12.2516C5.11495 12.3046 5.0486 12.3459 4.97617 12.3731C4.90373 12.4004 4.82662 12.4131 4.74927 12.4105C4.67191 12.4079 4.59583 12.3901 4.52537 12.358C4.45492 12.326 4.39148 12.2804 4.33869 12.2238C3.35275 11.1692 3.78154 9.20228 3.83328 8.98142C3.9079 8.66504 4.22527 8.46805 4.54164 8.54366C4.61685 8.56134 4.68783 8.59366 4.75054 8.63878C4.81325 8.68391 4.86645 8.74094 4.9071 8.80663C4.94776 8.87233 4.97507 8.94539 4.98747 9.02164C4.99988 9.09789 4.99713 9.17584 4.9794 9.25103C4.88588 9.65297 4.7257 10.9125 5.19827 11.4189C5.42113 11.6567 5.40919 12.0298 5.17141 12.2516Z" fill="#FF7C33"/>
<path d="M11.0769 5.52217C10.6919 4.17807 9.64324 2.46387 6.78094 2.15247C6.51331 2.12362 6.30438 2.38329 6.39193 2.63798C6.68443 3.49359 6.91923 5.13814 5.57911 6.14597C5.52439 6.18676 5.44877 6.17283 5.40599 6.1201C4.95929 5.55103 4.40215 5.20182 3.64702 5.06054C3.38338 5.01179 3.16151 5.25156 3.2222 5.51322C3.3396 6.01763 3.38835 6.87821 2.90782 8.0502C2.55562 8.90779 2.17956 10.2957 2.48499 11.588C2.6581 11.599 2.83121 11.6059 3.00731 11.6059C3.31672 11.6059 3.62116 11.588 3.92161 11.5552C3.49878 10.4956 3.79029 9.16249 3.83207 8.98241C3.90669 8.66604 4.22406 8.46905 4.54044 8.54466C4.61564 8.56233 4.68663 8.59466 4.74933 8.63978C4.81204 8.6849 4.86524 8.74194 4.9059 8.80763C4.94655 8.87332 4.97386 8.94638 4.98626 9.02263C4.99867 9.09889 4.99592 9.17684 4.97819 9.25203C4.88964 9.63307 4.7424 10.7842 5.12941 11.3333C7.99769 10.5862 10.2651 8.3616 11.0769 5.52217Z" fill="#FF8D4D"/>
<path d="M6.781 2.15247C6.51337 2.12362 6.30444 2.38329 6.39199 2.63798C6.68449 3.49359 6.91929 5.13814 5.57916 6.14597C5.52445 6.18676 5.44883 6.17283 5.40605 6.1201C4.95935 5.55103 4.40221 5.20182 3.64708 5.06054C3.38343 5.01179 3.16157 5.25156 3.22226 5.51322C3.33966 6.01763 3.38841 6.87821 2.90788 8.0502C2.85798 8.17314 2.81088 8.29721 2.7666 8.42229C5.67766 7.75869 8.01367 5.58485 8.90211 2.76632C8.339 2.46686 7.64257 2.24599 6.781 2.15247Z" fill="#FFA56A"/>
</g>
<defs>
<clipPath id="clip0_5670_998">
<rect x="0.25" y="0.550293" width="16" height="16" rx="8" fill="white"/>
</clipPath>
</defs>
</svg>
