<svg width="30" height="31" viewBox="0 0 30 31" fill="none" xmlns="http://www.w3.org/2000/svg">
<g clip-path="url(#clip0_5670_1313)">
<path d="M4.81556 1.26904L17.6221 14.0732L20.9268 10.7685C16.4111 8.02875 10.363 4.35335 7.64302 2.70084L5.8207 1.59686C5.49862 1.40064 5.15372 1.29496 4.81556 1.26904ZM2.86071 2.80208C2.83479 2.94277 2.8125 3.08415 2.8125 3.23595V28.5406C2.8125 28.6467 2.83385 28.7455 2.84865 28.8467L15.877 15.8184L2.86071 2.80208ZM23.0986 12.087L19.3673 15.8184L23.0336 19.4846C24.9761 18.3073 26.3215 17.4897 26.4708 17.3996C27.1311 16.996 27.504 16.3872 27.4928 15.722C27.483 15.0691 27.11 14.4854 26.4757 14.1262C26.3337 14.0448 25.0066 13.2434 23.0986 12.087ZM17.6221 17.5635L4.85414 30.3315C5.1022 30.2884 5.34994 30.2144 5.58689 30.0712C5.9152 29.8713 14.7836 24.4907 20.8618 20.8031L17.6221 17.5635Z" fill="white"/>
</g>
<defs>
<clipPath id="clip0_5670_1313">
<rect width="30" height="30" fill="white" transform="translate(0 0.800293)"/>
</clipPath>
</defs>
</svg>
